<?xml version="1.0" encoding="utf-8"?>
<!-- Generator: Adobe Illustrator 18.0.0, SVG Export Plug-In . SVG Version: 6.00 Build 0)  -->
<!DOCTYPE svg PUBLIC "-//W3C//DTD SVG 1.1//EN" "http://www.w3.org/Graphics/SVG/1.1/DTD/svg11.dtd">
<svg version="1.1" id="Dots_1_" xmlns="http://www.w3.org/2000/svg" xmlns:xlink="http://www.w3.org/1999/xlink" x="0px" y="0px"
	 viewBox="0 0 1222.4 826.5" enable-background="new 0 0 1222.4 826.5" xml:space="preserve">
<g id="Dots">
	<g>
		<path fill-rule="evenodd" clip-rule="evenodd" fill="#CA2323" d="M1099,228.2c0-1.3-1.1-2.4-2.4-2.4s-2.4,1.1-2.4,2.4
			c0,1.3,1.1,2.4,2.4,2.4S1099,229.5,1099,228.2z M1087.9,230.6c1.3,0,2.4-1.1,2.4-2.4c0-1.3-1.1-2.4-2.4-2.4
			c-1.3,0-2.4,1.1-2.4,2.4C1085.5,229.5,1086.6,230.6,1087.9,230.6z M1090.4,236.8c0-1.3-1.1-2.4-2.4-2.4c-1.3,0-2.4,1.1-2.4,2.4
			c0,1.3,1.1,2.4,2.4,2.4C1089.3,239.2,1090.4,238.1,1090.4,236.8z M1079.3,199.8c-1.3,0-2.4,1.1-2.4,2.4c0,1.3,1.1,2.4,2.4,2.4
			c1.3,0,2.4-1.1,2.4-2.4C1081.7,200.9,1080.6,199.8,1079.3,199.8z M1101.5,243c0-1.3-1.1-2.4-2.4-2.4c-1.3,0-2.4,1.1-2.4,2.4
			c0,1.3,1.1,2.4,2.4,2.4C1100.4,245.4,1101.5,244.3,1101.5,243z M1070.6,204.7c1.3,0,2.4-1.1,2.4-2.4c0-1.3-1.1-2.4-2.4-2.4
			c-1.3,0-2.4,1.1-2.4,2.4C1068.2,203.6,1069.3,204.7,1070.6,204.7z M1070.6,247.9c1.3,0,2.4-1.1,2.4-2.4c0-1.3-1.1-2.4-2.4-2.4
			c-1.3,0-2.4,1.1-2.4,2.4C1068.2,246.8,1069.3,247.9,1070.6,247.9z M1059.6,210.9c0,1.3,1.1,2.4,2.4,2.4c1.3,0,2.4-1.1,2.4-2.4
			c0-1.3-1.1-2.4-2.4-2.4C1060.6,208.4,1059.6,209.5,1059.6,210.9z M1070.6,268.9c-1.3,0-2.4,1.1-2.4,2.4c0,1.3,1.1,2.4,2.4,2.4
			c1.3,0,2.4-1.1,2.4-2.4C1073.1,270,1072,268.9,1070.6,268.9z M1073.1,254.1c-1.3,0-2.4,1.1-2.4,2.4c0,1.3,1.1,2.4,2.4,2.4
			c1.3,0,2.4-1.1,2.4-2.4C1075.5,255.2,1074.4,254.1,1073.1,254.1z M1062,562.6c-1.3,0-2.4,1.1-2.4,2.4c0,1.3,1.1,2.4,2.4,2.4
			c1.3,0,2.4-1.1,2.4-2.4C1064.4,563.7,1063.3,562.6,1062,562.6z M1062,579.9c-1.3,0-2.4,1.1-2.4,2.4c0,1.3,1.1,2.4,2.4,2.4
			c1.3,0,2.4-1.1,2.4-2.4C1064.4,581,1063.3,579.9,1062,579.9z M1062.8,39.9c0-1.3-1.1-2.4-2.4-2.4s-2.4,1.1-2.4,2.4
			c0,1.3,1.1,2.4,2.4,2.4S1062.8,41.2,1062.8,39.9z M1050.9,219.5c0,1.3,1.1,2.4,2.4,2.4s2.4-1.1,2.4-2.4c0-1.3-1.1-2.4-2.4-2.4
			S1050.9,218.2,1050.9,219.5z M1053.3,234.4c-1.3,0-2.4,1.1-2.4,2.4c0,1.3,1.1,2.4,2.4,2.4s2.4-1.1,2.4-2.4
			C1055.8,235.5,1054.7,234.4,1053.3,234.4z M1053.3,243c-1.3,0-2.4,1.1-2.4,2.4c0,1.3,1.1,2.4,2.4,2.4s2.4-1.1,2.4-2.4
			C1055.8,244.1,1054.7,243,1053.3,243z M1053.3,554c-1.3,0-2.4,1.1-2.4,2.4c0,1.3,1.1,2.4,2.4,2.4s2.4-1.1,2.4-2.4
			C1055.8,555.1,1054.7,554,1053.3,554z M1037.4,544c0,1.3,1.1,2.4,2.4,2.4c1.3,0,2.4-1.1,2.4-2.4c0-1.3-1.1-2.4-2.4-2.4
			C1038.5,541.6,1037.4,542.7,1037.4,544z M1053.3,579.9c-1.3,0-2.4,1.1-2.4,2.4c0,1.3,1.1,2.4,2.4,2.4s2.4-1.1,2.4-2.4
			C1055.8,581,1054.7,579.9,1053.3,579.9z M1044.7,213.3c1.3,0,2.4-1.1,2.4-2.4c0-1.3-1.1-2.4-2.4-2.4c-1.3,0-2.4,1.1-2.4,2.4
			C1042.3,212.2,1043.3,213.3,1044.7,213.3z M1044.7,222c1.3,0,2.4-1.1,2.4-2.4c0-1.3-1.1-2.4-2.4-2.4c-1.3,0-2.4,1.1-2.4,2.4
			C1042.3,220.9,1043.3,222,1044.7,222z M1044.7,230.6c1.3,0,2.4-1.1,2.4-2.4c0-1.3-1.1-2.4-2.4-2.4c-1.3,0-2.4,1.1-2.4,2.4
			C1042.3,229.5,1043.3,230.6,1044.7,230.6z M1050.9,257.8c0-1.3-1.1-2.4-2.4-2.4c-1.3,0-2.4,1.1-2.4,2.4c0,1.3,1.1,2.4,2.4,2.4
			C1049.8,260.3,1050.9,259.2,1050.9,257.8z M1055.8,283.8c-1.3,0-2.4,1.1-2.4,2.4c0,1.3,1.1,2.4,2.4,2.4c1.3,0,2.4-1.1,2.4-2.4
			C1058.2,284.8,1057.1,283.8,1055.8,283.8z M1042.2,571.2c-1.3,0-2.4,1.1-2.4,2.4c0,1.3,1.1,2.4,2.4,2.4c1.3,0,2.4-1.1,2.4-2.4
			C1044.7,572.3,1043.6,571.2,1042.2,571.2z M1036,609.6c-1.3,0-2.4,1.1-2.4,2.4c0,1.3,1.1,2.4,2.4,2.4c1.3,0,2.4-1.1,2.4-2.4
			C1038.5,610.6,1037.4,609.6,1036,609.6z M1184,213.1c-1.3,0-2.4,1.1-2.4,2.4c0,1.3,1.1,2.4,2.4,2.4c1.3,0,2.4-1.1,2.4-2.4
			C1186.5,214.2,1185.4,213.1,1184,213.1z M1036,230.6c1.3,0,2.4-1.1,2.4-2.4c0-1.3-1.1-2.4-2.4-2.4c-1.3,0-2.4,1.1-2.4,2.4
			C1033.6,229.5,1034.7,230.6,1036,230.6z M1036,247.9c1.3,0,2.4-1.1,2.4-2.4c0-1.3-1.1-2.4-2.4-2.4c-1.3,0-2.4,1.1-2.4,2.4
			C1033.6,246.8,1034.7,247.9,1036,247.9z M1036,256.5c1.3,0,2.4-1.1,2.4-2.4c0-1.3-1.1-2.4-2.4-2.4c-1.3,0-2.4,1.1-2.4,2.4
			C1033.6,255.4,1034.7,256.5,1036,256.5z M1024.9,510.8c0,1.3,1.1,2.4,2.4,2.4c1.3,0,2.4-1.1,2.4-2.4c0-1.3-1.1-2.4-2.4-2.4
			C1026,508.3,1024.9,509.4,1024.9,510.8z M1053.3,530.5c1.3,0,2.4-1.1,2.4-2.4c0-1.3-1.1-2.4-2.4-2.4c-1.3,0-2.4,1.1-2.4,2.4
			C1050.9,529.4,1052,530.5,1053.3,530.5z M1027.4,573.7c-1.3,0-2.4,1.1-2.4,2.4c0,1.3,1.1,2.4,2.4,2.4c1.3,0,2.4-1.1,2.4-2.4
			C1029.8,574.8,1028.7,573.7,1027.4,573.7z M1027.4,593.4c-1.3,0-2.4,1.1-2.4,2.4c0,1.3,1.1,2.4,2.4,2.4c1.3,0,2.4-1.1,2.4-2.4
			C1029.8,594.5,1028.7,593.4,1027.4,593.4z M1036,165.3c1.3,0,2.4-1.1,2.4-2.4c0-1.3-1.1-2.4-2.4-2.4c-1.3,0-2.4,1.1-2.4,2.4
			C1033.6,164.2,1034.7,165.3,1036,165.3z M1199.4,259c-1.3,0-2.4,1.1-2.4,2.4c0,1.3,1.1,2.4,2.4,2.4c1.3,0,2.4-1.1,2.4-2.4
			C1201.8,260.1,1200.7,259,1199.4,259z M1037.4,276.2c0,1.3,1.1,2.4,2.4,2.4c1.3,0,2.4-1.1,2.4-2.4c0-1.3-1.1-2.4-2.4-2.4
			C1038.5,273.8,1037.4,274.9,1037.4,276.2z M1007.6,502.1c-1.3,0-2.4,1.1-2.4,2.4c0,1.3,1.1,2.4,2.4,2.4c1.3,0,2.4-1.1,2.4-2.4
			C1010.1,503.2,1009,502.1,1007.6,502.1z M1023.6,528.1c0-1.3-1.1-2.4-2.4-2.4c-1.3,0-2.4,1.1-2.4,2.4c0,1.3,1.1,2.4,2.4,2.4
			C1022.5,530.5,1023.6,529.4,1023.6,528.1z M1008.7,40.3c1.3,0,2.4-1.1,2.4-2.4c0-1.3-1.1-2.4-2.4-2.4c-1.3,0-2.4,1.1-2.4,2.4
			C1006.3,39.2,1007.4,40.3,1008.7,40.3z M1036,314.5c0-1.3-1.1-2.4-2.4-2.4c-1.3,0-2.4,1.1-2.4,2.4c0,1.3,1.1,2.4,2.4,2.4
			C1034.9,317,1036,315.9,1036,314.5z M1012.5,141.8c-1.3,0-2.4,1.1-2.4,2.4c0,1.3,1.1,2.4,2.4,2.4c1.3,0,2.4-1.1,2.4-2.4
			C1015,142.9,1013.9,141.8,1012.5,141.8z M992.8,467.6c-1.3,0-2.4,1.1-2.4,2.4c0,1.3,1.1,2.4,2.4,2.4c1.3,0,2.4-1.1,2.4-2.4
			C995.2,468.7,994.1,467.6,992.8,467.6z M1003.9,584.8c0-1.3-1.1-2.4-2.4-2.4c-1.3,0-2.4,1.1-2.4,2.4c0,1.3,1.1,2.4,2.4,2.4
			C1002.8,587.2,1003.9,586.1,1003.9,584.8z M992.8,536.7c-1.3,0-2.4,1.1-2.4,2.4c0,1.3,1.1,2.4,2.4,2.4c1.3,0,2.4-1.1,2.4-2.4
			C995.2,537.8,994.1,536.7,992.8,536.7z M984.1,187.4c1.3,0,2.4-1.1,2.4-2.4c0-1.3-1.1-2.4-2.4-2.4c-1.3,0-2.4,1.1-2.4,2.4
			C981.7,186.3,982.8,187.4,984.1,187.4z M1001.4,135.6c1.3,0,2.4-1.1,2.4-2.4c0-1.3-1.1-2.4-2.4-2.4c-1.3,0-2.4,1.1-2.4,2.4
			C999,134.5,1000.1,135.6,1001.4,135.6z M984.1,467.6c-1.3,0-2.4,1.1-2.4,2.4c0,1.3,1.1,2.4,2.4,2.4c1.3,0,2.4-1.1,2.4-2.4
			C986.6,468.7,985.5,467.6,984.1,467.6z M1027.4,555.1c0-1.3-1.1-2.4-2.4-2.4c-1.3,0-2.4,1.1-2.4,2.4c0,1.3,1.1,2.4,2.4,2.4
			C1026.3,557.5,1027.4,556.4,1027.4,555.1z M984.1,545.3c-1.3,0-2.4,1.1-2.4,2.4c0,1.3,1.1,2.4,2.4,2.4c1.3,0,2.4-1.1,2.4-2.4
			C986.6,546.4,985.5,545.3,984.1,545.3z M984.1,554c-1.3,0-2.4,1.1-2.4,2.4c0,1.3,1.1,2.4,2.4,2.4c1.3,0,2.4-1.1,2.4-2.4
			C986.6,555.1,985.5,554,984.1,554z M975.5,182.5c-1.3,0-2.4,1.1-2.4,2.4c0,1.3,1.1,2.4,2.4,2.4c1.3,0,2.4-1.1,2.4-2.4
			C977.9,183.6,976.8,182.5,975.5,182.5z M975.5,476.2c-1.3,0-2.4,1.1-2.4,2.4c0,1.3,1.1,2.4,2.4,2.4c1.3,0,2.4-1.1,2.4-2.4
			C977.9,477.3,976.8,476.2,975.5,476.2z M975.5,536.7c-1.3,0-2.4,1.1-2.4,2.4c0,1.3,1.1,2.4,2.4,2.4c1.3,0,2.4-1.1,2.4-2.4
			C977.9,537.8,976.8,536.7,975.5,536.7z M966.8,607.1c-1.3,0-2.4,1.1-2.4,2.4c0,1.3,1.1,2.4,2.4,2.4c1.3,0,2.4-1.1,2.4-2.4
			C969.3,608.2,968.2,607.1,966.8,607.1z M975.5,562.6c-1.3,0-2.4,1.1-2.4,2.4c0,1.3,1.1,2.4,2.4,2.4c1.3,0,2.4-1.1,2.4-2.4
			C977.9,563.7,976.8,562.6,975.5,562.6z M975.5,571.2c-1.3,0-2.4,1.1-2.4,2.4c0,1.3,1.1,2.4,2.4,2.4c1.3,0,2.4-1.1,2.4-2.4
			C977.9,572.3,976.8,571.2,975.5,571.2z M975.5,579.9c-1.3,0-2.4,1.1-2.4,2.4c0,1.3,1.1,2.4,2.4,2.4c1.3,0,2.4-1.1,2.4-2.4
			C977.9,581,976.8,579.9,975.5,579.9z M966.8,173.9c-1.3,0-2.4,1.1-2.4,2.4c0,1.3,1.1,2.4,2.4,2.4c1.3,0,2.4-1.1,2.4-2.4
			C969.3,175,968.2,173.9,966.8,173.9z M1046.8,101.4c1.3,0,2.4-1.1,2.4-2.4c0-1.3-1.1-2.4-2.4-2.4c-1.3,0-2.4,1.1-2.4,2.4
			C1044.4,100.3,1045.5,101.4,1046.8,101.4z M1145.8,167c1.3,0,2.4-1.1,2.4-2.4c0-1.3-1.1-2.4-2.4-2.4c-1.3,0-2.4,1.1-2.4,2.4
			C1143.4,166,1144.5,167,1145.8,167z M1044.7,333.1c0-1.3-1.1-2.4-2.4-2.4c-1.3,0-2.4,1.1-2.4,2.4c0,1.3,1.1,2.4,2.4,2.4
			C1043.6,335.6,1044.7,334.5,1044.7,333.1z M1136.8,564.6c-1.3,0-2.4,1.1-2.4,2.4c0,1.3,1.1,2.4,2.4,2.4c1.3,0,2.4-1.1,2.4-2.4
			C1139.3,565.7,1138.2,564.6,1136.8,564.6z M966.8,476.2c-1.3,0-2.4,1.1-2.4,2.4c0,1.3,1.1,2.4,2.4,2.4c1.3,0,2.4-1.1,2.4-2.4
			C969.3,477.3,968.2,476.2,966.8,476.2z M850.6,568.8c-1.3,0-2.4,1.1-2.4,2.4c0,1.3,1.1,2.4,2.4,2.4c1.3,0,2.4-1.1,2.4-2.4
			C853,569.9,851.9,568.8,850.6,568.8z M1152.8,520.8c-1.3,0-2.4,1.1-2.4,2.4c0,1.3,1.1,2.4,2.4,2.4c1.3,0,2.4-1.1,2.4-2.4
			C1155.3,521.9,1154.2,520.8,1152.8,520.8z M1053.3,459c0-1.3-1.1-2.4-2.4-2.4c-1.3,0-2.4,1.1-2.4,2.4c0,1.3,1.1,2.4,2.4,2.4
			C1052.3,461.4,1053.3,460.3,1053.3,459z M1025.8,474.9c1.3,0,2.4-1.1,2.4-2.4c0-1.3-1.1-2.4-2.4-2.4c-1.3,0-2.4,1.1-2.4,2.4
			C1023.4,473.8,1024.5,474.9,1025.8,474.9z M966.8,536.7c-1.3,0-2.4,1.1-2.4,2.4c0,1.3,1.1,2.4,2.4,2.4c1.3,0,2.4-1.1,2.4-2.4
			C969.3,537.8,968.2,536.7,966.8,536.7z M1103.9,452.8c0-1.3-1.1-2.4-2.4-2.4c-1.3,0-2.4,1.1-2.4,2.4c0,1.3,1.1,2.4,2.4,2.4
			C1102.8,455.2,1103.9,454.1,1103.9,452.8z M966.8,554c-1.3,0-2.4,1.1-2.4,2.4c0,1.3,1.1,2.4,2.4,2.4c1.3,0,2.4-1.1,2.4-2.4
			C969.3,555.1,968.2,554,966.8,554z M966.8,562.6c-1.3,0-2.4,1.1-2.4,2.4c0,1.3,1.1,2.4,2.4,2.4c1.3,0,2.4-1.1,2.4-2.4
			C969.3,563.7,968.2,562.6,966.8,562.6z M1004.8,619.2c-1.3,0-2.4,1.1-2.4,2.4c0,1.3,1.1,2.4,2.4,2.4c1.3,0,2.4-1.1,2.4-2.4
			C1007.3,620.3,1006.2,619.2,1004.8,619.2z M958.2,173.9c-1.3,0-2.4,1.1-2.4,2.4c0,1.3,1.1,2.4,2.4,2.4c1.3,0,2.4-1.1,2.4-2.4
			C960.6,175,959.5,173.9,958.2,173.9z M1052.2,137.4c1.3,0,2.4-1.1,2.4-2.4c0-1.3-1.1-2.4-2.4-2.4c-1.3,0-2.4,1.1-2.4,2.4
			C1049.7,136.3,1050.8,137.4,1052.2,137.4z M1096.2,132.2c1.3,0,2.4-1.1,2.4-2.4c0-1.3-1.1-2.4-2.4-2.4c-1.3,0-2.4,1.1-2.4,2.4
			C1093.7,131.1,1094.8,132.2,1096.2,132.2z M958.2,458.9c-1.3,0-2.4,1.1-2.4,2.4c0,1.3,1.1,2.4,2.4,2.4c1.3,0,2.4-1.1,2.4-2.4
			C960.6,460,959.5,458.9,958.2,458.9z M958.2,467.6c-1.3,0-2.4,1.1-2.4,2.4c0,1.3,1.1,2.4,2.4,2.4c1.3,0,2.4-1.1,2.4-2.4
			C960.6,468.7,959.5,467.6,958.2,467.6z M958.2,476.2c-1.3,0-2.4,1.1-2.4,2.4c0,1.3,1.1,2.4,2.4,2.4c1.3,0,2.4-1.1,2.4-2.4
			C960.6,477.3,959.5,476.2,958.2,476.2z M992.8,545.3c-0.5,0-0.9,0.1-1.3,0.4c-0.7,0.4-1.1,1.2-1.1,2c0,1.3,1.1,2.4,2.4,2.4
			c1.3,0,2.4-1.1,2.4-2.4c0-0.6-0.2-1.2-0.6-1.6C994.1,545.6,993.5,545.3,992.8,545.3z M1065.2,478.7c-1.3,0-2.4,1.1-2.4,2.4
			c0,1.3,1.1,2.4,2.4,2.4c1.3,0,2.4-1.1,2.4-2.4C1067.6,479.8,1066.5,478.7,1065.2,478.7z M958.2,545.3c-1.3,0-2.4,1.1-2.4,2.4
			c0,1.3,1.1,2.4,2.4,2.4c1.3,0,2.4-1.1,2.4-2.4C960.6,546.4,959.5,545.3,958.2,545.3z M902.2,631c-1.3,0-2.4,1.1-2.4,2.4
			c0,1.3,1.1,2.4,2.4,2.4c1.3,0,2.4-1.1,2.4-2.4C904.6,632.1,903.5,631,902.2,631z M949.5,178.8c1.3,0,2.4-1.1,2.4-2.4
			c0-1.3-1.1-2.4-2.4-2.4c-1.3,0-2.4,1.1-2.4,2.4C947.1,177.7,948.2,178.8,949.5,178.8z M1146.1,297.3c-1.3,0-2.4,1.1-2.4,2.4
			c0,1.3,1.1,2.4,2.4,2.4c1.3,0,2.4-1.1,2.4-2.4C1148.5,298.4,1147.4,297.3,1146.1,297.3z M969.3,357.7c0-1.3-1.1-2.4-2.4-2.4
			c-1.3,0-2.4,1.1-2.4,2.4c0,1.3,1.1,2.4,2.4,2.4C968.2,360.2,969.3,359.1,969.3,357.7z M1001.4,383.6c1.3,0,2.4-1.1,2.4-2.4
			c0-1.3-1.1-2.4-2.4-2.4c-1.3,0-2.4,1.1-2.4,2.4C999,382.6,1000.1,383.6,1001.4,383.6z M949.5,463.8c1.3,0,2.4-1.1,2.4-2.4
			c0-1.3-1.1-2.4-2.4-2.4c-1.3,0-2.4,1.1-2.4,2.4C947.1,462.7,948.2,463.8,949.5,463.8z M1010.1,413.3c-1.3,0-2.4,1.1-2.4,2.4
			c0,1.3,1.1,2.4,2.4,2.4c1.3,0,2.4-1.1,2.4-2.4C1012.5,414.4,1011.4,413.3,1010.1,413.3z M940.9,582.3c-1.3,0-2.4,1.1-2.4,2.4
			c0,1.3,1.1,2.4,2.4,2.4c1.3,0,2.4-1.1,2.4-2.4C943.3,583.4,942.2,582.3,940.9,582.3z M952,539.1c0-1.3-1.1-2.4-2.4-2.4
			c-1.3,0-2.4,1.1-2.4,2.4c0,1.3,1.1,2.4,2.4,2.4C950.9,541.6,952,540.5,952,539.1z M774.1,563.7c-1.3,0-2.4,1.1-2.4,2.4
			c0,1.3,1.1,2.4,2.4,2.4c1.3,0,2.4-1.1,2.4-2.4C776.5,564.8,775.4,563.7,774.1,563.7z M1070.6,323.2c-1.3,0-2.4,1.1-2.4,2.4
			c0,1.3,1.1,2.4,2.4,2.4c1.3,0,2.4-1.1,2.4-2.4C1073.1,324.3,1072,323.2,1070.6,323.2z M1044.7,359.1c-1.3,0-2.4,1.1-2.4,2.4
			c0,1.3,1.1,2.4,2.4,2.4c1.3,0,2.4-1.1,2.4-2.4C1047.1,360.2,1046,359.1,1044.7,359.1z M940.9,472.5c1.3,0,2.4-1.1,2.4-2.4
			c0-1.3-1.1-2.4-2.4-2.4c-1.3,0-2.4,1.1-2.4,2.4C938.4,471.4,939.5,472.5,940.9,472.5z M940.9,481.1c1.3,0,2.4-1.1,2.4-2.4
			c0-1.3-1.1-2.4-2.4-2.4c-1.3,0-2.4,1.1-2.4,2.4C938.4,480,939.5,481.1,940.9,481.1z M940.9,541.6c1.3,0,2.4-1.1,2.4-2.4
			c0-1.3-1.1-2.4-2.4-2.4c-1.3,0-2.4,1.1-2.4,2.4C938.4,540.5,939.5,541.6,940.9,541.6z M950.9,656.3c-1.3,0-2.4,1.1-2.4,2.4
			c0,1.3,1.1,2.4,2.4,2.4c1.3,0,2.4-1.1,2.4-2.4C953.3,657.4,952.2,656.3,950.9,656.3z M940.9,558.8c1.3,0,2.4-1.1,2.4-2.4
			c0-1.3-1.1-2.4-2.4-2.4c-1.3,0-2.4,1.1-2.4,2.4C938.4,557.7,939.5,558.8,940.9,558.8z M932.2,130.7c0-1.3-1.1-2.4-2.4-2.4
			c-1.3,0-2.4,1.1-2.4,2.4c0,1.3,1.1,2.4,2.4,2.4C931.1,133.1,932.2,132,932.2,130.7z M929.8,357.7c0,1.3,1.1,2.4,2.4,2.4
			c1.3,0,2.4-1.1,2.4-2.4c0-1.3-1.1-2.4-2.4-2.4C930.9,355.3,929.8,356.4,929.8,357.7z M932.2,363.9c-1.3,0-2.4,1.1-2.4,2.4
			c0,1.3,1.1,2.4,2.4,2.4c1.3,0,2.4-1.1,2.4-2.4C934.7,365,933.6,363.9,932.2,363.9z M932.2,476.2c-1.3,0-2.4,1.1-2.4,2.4
			c0,1.3,1.1,2.4,2.4,2.4c1.3,0,2.4-1.1,2.4-2.4C934.7,477.3,933.6,476.2,932.2,476.2z M932.2,502.1c-1.3,0-2.4,1.1-2.4,2.4
			c0,1.3,1.1,2.4,2.4,2.4c1.3,0,2.4-1.1,2.4-2.4C934.7,503.2,933.6,502.1,932.2,502.1z M932.2,528.1c-1.3,0-2.4,1.1-2.4,2.4
			c0,1.3,1.1,2.4,2.4,2.4c1.3,0,2.4-1.1,2.4-2.4C934.7,529.1,933.6,528.1,932.2,528.1z M934.7,547.8c0-1.3-1.1-2.4-2.4-2.4
			c-1.3,0-2.4,1.1-2.4,2.4c0,1.3,1.1,2.4,2.4,2.4C933.6,550.2,934.7,549.1,934.7,547.8z M952,389.8c-1.3,0-2.4,1.1-2.4,2.4
			c0,1.3,1.1,2.4,2.4,2.4c1.3,0,2.4-1.1,2.4-2.4C954.4,390.9,953.3,389.8,952,389.8z M923.6,377.4c1.3,0,2.4-1.1,2.4-2.4
			c0-1.3-1.1-2.4-2.4-2.4c-1.3,0-2.4,1.1-2.4,2.4C921.1,376.3,922.2,377.4,923.6,377.4z M986.6,396c-1.3,0-2.4,1.1-2.4,2.4
			c0,1.3,1.1,2.4,2.4,2.4c1.3,0,2.4-1.1,2.4-2.4C989,397.1,987.9,396,986.6,396z M923.6,493.5c-1.3,0-2.4,1.1-2.4,2.4
			c0,1.3,1.1,2.4,2.4,2.4c1.3,0,2.4-1.1,2.4-2.4C926,494.6,924.9,493.5,923.6,493.5z M923.6,502.1c-1.3,0-2.4,1.1-2.4,2.4
			c0,1.3,1.1,2.4,2.4,2.4c1.3,0,2.4-1.1,2.4-2.4C926,503.2,924.9,502.1,923.6,502.1z M923.6,519.4c-1.3,0-2.4,1.1-2.4,2.4
			c0,1.3,1.1,2.4,2.4,2.4c1.3,0,2.4-1.1,2.4-2.4C926,520.5,924.9,519.4,923.6,519.4z M906.3,575c-1.3,0-2.4,1.1-2.4,2.4
			c0,1.3,1.1,2.4,2.4,2.4c1.3,0,2.4-1.1,2.4-2.4C908.7,576.1,907.6,575,906.3,575z M923.6,545.3c-1.3,0-2.4,1.1-2.4,2.4
			c0,1.3,1.1,2.4,2.4,2.4c1.3,0,2.4-1.1,2.4-2.4C926,546.4,924.9,545.3,923.6,545.3z M914.9,191.2c-1.3,0-2.4,1.1-2.4,2.4
			c0,1.3,1.1,2.4,2.4,2.4c1.3,0,2.4-1.1,2.4-2.4C917.4,192.3,916.3,191.2,914.9,191.2z M914.9,217.1c-1.3,0-2.4,1.1-2.4,2.4
			c0,1.3,1.1,2.4,2.4,2.4c1.3,0,2.4-1.1,2.4-2.4C917.4,218.2,916.3,217.1,914.9,217.1z M914.9,225.7c-1.3,0-2.4,1.1-2.4,2.4
			c0,1.3,1.1,2.4,2.4,2.4c1.3,0,2.4-1.1,2.4-2.4C917.4,226.8,916.3,225.7,914.9,225.7z M1136.4,374.2c0-1.3-1.1-2.4-2.4-2.4
			c-1.3,0-2.4,1.1-2.4,2.4c0,1.3,1.1,2.4,2.4,2.4C1135.3,376.6,1136.4,375.5,1136.4,374.2z M908.7,375c-1.3,0-2.4,1.1-2.4,2.4
			c0,1.3,1.1,2.4,2.4,2.4c1.3,0,2.4-1.1,2.4-2.4C911.2,376.1,910.1,375,908.7,375z M914.9,338c-1.3,0-2.4,1.1-2.4,2.4
			c0,1.3,1.1,2.4,2.4,2.4c1.3,0,2.4-1.1,2.4-2.4C917.4,339.1,916.3,338,914.9,338z M914.9,415.8c-1.3,0-2.4,1.1-2.4,2.4
			c0,1.3,1.1,2.4,2.4,2.4c1.3,0,2.4-1.1,2.4-2.4C917.4,416.9,916.3,415.8,914.9,415.8z M914.9,467.6c-1.3,0-2.4,1.1-2.4,2.4
			c0,1.3,1.1,2.4,2.4,2.4c1.3,0,2.4-1.1,2.4-2.4C917.4,468.7,916.3,467.6,914.9,467.6z M914.9,476.2c-1.3,0-2.4,1.1-2.4,2.4
			c0,1.3,1.1,2.4,2.4,2.4c1.3,0,2.4-1.1,2.4-2.4C917.4,477.3,916.3,476.2,914.9,476.2z M864.4,550.2c-1.3,0-2.4,1.1-2.4,2.4
			c0,1.3,1.1,2.4,2.4,2.4c1.3,0,2.4-1.1,2.4-2.4C866.8,551.3,865.7,550.2,864.4,550.2z M914.9,502.1c-1.3,0-2.4,1.1-2.4,2.4
			c0,1.3,1.1,2.4,2.4,2.4c1.3,0,2.4-1.1,2.4-2.4C917.4,503.2,916.3,502.1,914.9,502.1z M864.4,495.9c-1.3,0-2.4,1.1-2.4,2.4
			c0,1.3,1.1,2.4,2.4,2.4c1.3,0,2.4-1.1,2.4-2.4C866.8,497,865.7,495.9,864.4,495.9z M914.9,519.4c-1.3,0-2.4,1.1-2.4,2.4
			c0,1.3,1.1,2.4,2.4,2.4c1.3,0,2.4-1.1,2.4-2.4C917.4,520.5,916.3,519.4,914.9,519.4z M889,594.7c-1.3,0-2.4,1.1-2.4,2.4
			c0,1.3,1.1,2.4,2.4,2.4c1.3,0,2.4-1.1,2.4-2.4C891.4,595.8,890.3,594.7,889,594.7z M889,165.3c1.3,0,2.4-1.1,2.4-2.4
			c0-1.3-1.1-2.4-2.4-2.4c-1.3,0-2.4,1.1-2.4,2.4C886.5,164.2,887.6,165.3,889,165.3z M906.3,204.7c1.3,0,2.4-1.1,2.4-2.4
			c0-1.3-1.1-2.4-2.4-2.4c-1.3,0-2.4,1.1-2.4,2.4C903.8,203.6,904.9,204.7,906.3,204.7z M906.3,213.3c1.3,0,2.4-1.1,2.4-2.4
			c0-1.3-1.1-2.4-2.4-2.4c-1.3,0-2.4,1.1-2.4,2.4C903.8,212.2,904.9,213.3,906.3,213.3z M923.6,63c1.3,0,2.4-1.1,2.4-2.4
			c0-1.3-1.1-2.4-2.4-2.4c-1.3,0-2.4,1.1-2.4,2.4C921.1,61.9,922.2,63,923.6,63z M958.2,150.4c1.3,0,2.4-1.1,2.4-2.4
			c0-1.3-1.1-2.4-2.4-2.4c-1.3,0-2.4,1.1-2.4,2.4C955.7,149.3,956.8,150.4,958.2,150.4z M906.3,325.6c1.3,0,2.4-1.1,2.4-2.4
			c0-1.3-1.1-2.4-2.4-2.4c-1.3,0-2.4,1.1-2.4,2.4C903.8,324.5,904.9,325.6,906.3,325.6z M906.3,334.3c1.3,0,2.4-1.1,2.4-2.4
			c0-1.3-1.1-2.4-2.4-2.4c-1.3,0-2.4,1.1-2.4,2.4C903.8,333.2,904.9,334.3,906.3,334.3z M906.3,412c1.3,0,2.4-1.1,2.4-2.4
			c0-1.3-1.1-2.4-2.4-2.4c-1.3,0-2.4,1.1-2.4,2.4C903.8,410.9,904.9,412,906.3,412z M906.3,429.3c1.3,0,2.4-1.1,2.4-2.4
			c0-1.3-1.1-2.4-2.4-2.4c-1.3,0-2.4,1.1-2.4,2.4C903.8,428.2,904.9,429.3,906.3,429.3z M1159.3,416.3c-1.3,0-2.4,1.1-2.4,2.4
			c0,1.3,1.1,2.4,2.4,2.4c1.3,0,2.4-1.1,2.4-2.4C1161.7,417.4,1160.6,416.3,1159.3,416.3z M1209.3,435.9c-1.3,0-2.4,1.1-2.4,2.4
			c0,1.3,1.1,2.4,2.4,2.4c1.3,0,2.4-1.1,2.4-2.4C1211.7,437,1210.6,435.9,1209.3,435.9z M906.3,489.7c1.3,0,2.4-1.1,2.4-2.4
			c0-1.3-1.1-2.4-2.4-2.4c-1.3,0-2.4,1.1-2.4,2.4C903.8,488.6,904.9,489.7,906.3,489.7z M908.7,530.5c-1.3,0-2.4,1.1-2.4,2.4
			c0,1.3,1.1,2.4,2.4,2.4c1.3,0,2.4-1.1,2.4-2.4C911.1,531.6,910.1,530.5,908.7,530.5z M906.3,545.3c-1.3,0-2.4,1.1-2.4,2.4
			c0,1.3,1.1,2.4,2.4,2.4c1.3,0,2.4-1.1,2.4-2.4C908.7,546.4,907.6,545.3,906.3,545.3z M906.3,554c-1.3,0-2.4,1.1-2.4,2.4
			c0,1.3,1.1,2.4,2.4,2.4c1.3,0,2.4-1.1,2.4-2.4C908.7,555.1,907.6,554,906.3,554z M897.6,191.2c-1.3,0-2.4,1.1-2.4,2.4
			c0,1.3,1.1,2.4,2.4,2.4c1.3,0,2.4-1.1,2.4-2.4C900.1,192.3,899,191.2,897.6,191.2z M897.6,199.8c-1.3,0-2.4,1.1-2.4,2.4
			c0,1.3,1.1,2.4,2.4,2.4c1.3,0,2.4-1.1,2.4-2.4C900.1,200.9,899,199.8,897.6,199.8z M890.6,71.7c-1.3,0-2.4,1.1-2.4,2.4
			c0,1.3,1.1,2.4,2.4,2.4c1.3,0,2.4-1.1,2.4-2.4C893.1,72.8,892,71.7,890.6,71.7z M976.1,434.2c0-1.3-1.1-2.4-2.4-2.4
			c-1.3,0-2.4,1.1-2.4,2.4c0,1.3,1.1,2.4,2.4,2.4C975,436.6,976.1,435.5,976.1,434.2z M899,329.8c-0.4-0.3-0.9-0.4-1.4-0.4
			c-1.3,0-2.4,1.1-2.4,2.4c0,0,0,0,0,0s0,0,0,0c0,0.5,0.1,0.9,0.4,1.2c0,0,0,0.1,0.1,0.1c0,0,0,0,0.1,0.1c0.4,0.6,1.2,1,2,1
			c0.5,0,0.9-0.1,1.2-0.3c0.7-0.4,1.2-1.2,1.2-2.1C900.1,331,899.6,330.2,899,329.8z M897.6,338c-1.3,0-2.4,1.1-2.4,2.4
			c0,1.3,1.1,2.4,2.4,2.4c1.3,0,2.4-1.1,2.4-2.4C900.1,339.1,899,338,897.6,338z M897.6,355.3c-1.3,0-2.4,1.1-2.4,2.4
			c0,1.3,1.1,2.4,2.4,2.4c1.3,0,2.4-1.1,2.4-2.4C900.1,356.4,899,355.3,897.6,355.3z M897.6,372.6c-1.3,0-2.4,1.1-2.4,2.4
			c0,1.3,1.1,2.4,2.4,2.4c1.3,0,2.4-1.1,2.4-2.4C900.1,373.7,899,372.6,897.6,372.6z M897.6,381.2c-1.3,0-2.4,1.1-2.4,2.4
			c0,1.3,1.1,2.4,2.4,2.4c1.3,0,2.4-1.1,2.4-2.4C900.1,382.3,899,381.2,897.6,381.2z M897.6,398.5c-1.3,0-2.4,1.1-2.4,2.4
			c0,1.3,1.1,2.4,2.4,2.4c1.3,0,2.4-1.1,2.4-2.4C900.1,399.6,899,398.5,897.6,398.5z M897.6,415.8c-1.3,0-2.4,1.1-2.4,2.4
			c0,1.3,1.1,2.4,2.4,2.4c1.3,0,2.4-1.1,2.4-2.4C900.1,416.9,899,415.8,897.6,415.8z M897.6,476.2c-1.3,0-2.4,1.1-2.4,2.4
			c0,1.3,1.1,2.4,2.4,2.4c1.3,0,2.4-1.1,2.4-2.4C900.1,477.3,899,476.2,897.6,476.2z M897.6,484.9c-1.3,0-2.4,1.1-2.4,2.4
			c0,1.3,1.1,2.4,2.4,2.4c1.3,0,2.4-1.1,2.4-2.4C900.1,486,899,484.9,897.6,484.9z M851.9,521.8c-1.3,0-2.4,1.1-2.4,2.4
			c0,1.3,1.1,2.4,2.4,2.4c1.3,0,2.4-1.1,2.4-2.4C854.4,522.9,853.3,521.8,851.9,521.8z M897.6,545.3c-1.3,0-2.4,1.1-2.4,2.4
			c0,1.3,1.1,2.4,2.4,2.4c1.3,0,2.4-1.1,2.4-2.4C900.1,546.4,899,545.3,897.6,545.3z M900.1,159.1c1.3,0,2.4-1.1,2.4-2.4
			c0-1.3-1.1-2.4-2.4-2.4c-1.3,0-2.4,1.1-2.4,2.4C897.6,158,898.7,159.1,900.1,159.1z M889,208.4c-1.3,0-2.4,1.1-2.4,2.4
			c0,1.3,1.1,2.4,2.4,2.4c1.3,0,2.4-1.1,2.4-2.4C891.4,209.5,890.3,208.4,889,208.4z M889,225.7c-1.3,0-2.4,1.1-2.4,2.4
			c0,1.3,1.1,2.4,2.4,2.4c1.3,0,2.4-1.1,2.4-2.4C891.4,226.8,890.3,225.7,889,225.7z M889,320.7c-1.3,0-2.4,1.1-2.4,2.4
			c0,1.3,1.1,2.4,2.4,2.4c1.3,0,2.4-1.1,2.4-2.4C891.4,321.8,890.3,320.7,889,320.7z M1070,377.7c-1.3,0-2.4,1.1-2.4,2.4
			c0,1.3,1.1,2.4,2.4,2.4c1.3,0,2.4-1.1,2.4-2.4C1072.4,378.7,1071.3,377.7,1070,377.7z M923.6,399.8c-1.3,0-2.4,1.1-2.4,2.4
			c0,1.3,1.1,2.4,2.4,2.4c1.3,0,2.4-1.1,2.4-2.4C926,400.9,924.9,399.8,923.6,399.8z M889,381.2c-1.3,0-2.4,1.1-2.4,2.4
			c0,1.3,1.1,2.4,2.4,2.4c1.3,0,2.4-1.1,2.4-2.4C891.4,382.3,890.3,381.2,889,381.2z M1220,479.3c-1.3,0-2.4,1.1-2.4,2.4
			c0,1.3,1.1,2.4,2.4,2.4c1.3,0,2.4-1.1,2.4-2.4C1222.4,480.4,1221.3,479.3,1220,479.3z M830.9,470c-1.3,0-2.4,1.1-2.4,2.4
			c0,1.3,1.1,2.4,2.4,2.4c1.3,0,2.4-1.1,2.4-2.4C833.3,471.1,832.2,470,830.9,470z M708,655.1c-1.3,0-2.4,1.1-2.4,2.4
			c0,1.3,1.1,2.4,2.4,2.4c1.3,0,2.4-1.1,2.4-2.4C710.4,656.1,709.3,655.1,708,655.1z M821,674.7c-1.3,0-2.4,1.1-2.4,2.4
			c0,1.3,1.1,2.4,2.4,2.4c1.3,0,2.4-1.1,2.4-2.4C823.4,675.8,822.3,674.7,821,674.7z M889,545.3c-1.3,0-2.4,1.1-2.4,2.4
			c0,1.3,1.1,2.4,2.4,2.4c1.3,0,2.4-1.1,2.4-2.4C891.4,546.4,890.3,545.3,889,545.3z M889,554c-1.3,0-2.4,1.1-2.4,2.4
			c0,1.3,1.1,2.4,2.4,2.4c1.3,0,2.4-1.1,2.4-2.4C891.4,555.1,890.3,554,889,554z M880.3,191.2c-1.3,0-2.4,1.1-2.4,2.4
			c0,1.3,1.1,2.4,2.4,2.4c1.3,0,2.4-1.1,2.4-2.4C882.8,192.3,881.7,191.2,880.3,191.2z M880.3,208.4c-1.3,0-2.4,1.1-2.4,2.4
			c0,1.3,1.1,2.4,2.4,2.4c1.3,0,2.4-1.1,2.4-2.4C882.8,209.5,881.7,208.4,880.3,208.4z M897.6,126.9c0-1.3-1.1-2.4-2.4-2.4
			c-1.3,0-2.4,1.1-2.4,2.4c0,1.3,1.1,2.4,2.4,2.4C896.5,129.4,897.6,128.3,897.6,126.9z M1090.4,297.3c-1.3,0-2.4,1.1-2.4,2.4
			c0,1.3,1.1,2.4,2.4,2.4c1.3,0,2.4-1.1,2.4-2.4C1092.8,298.4,1091.7,297.3,1090.4,297.3z M880.3,363.9c-1.3,0-2.4,1.1-2.4,2.4
			c0,1.3,1.1,2.4,2.4,2.4c1.3,0,2.4-1.1,2.4-2.4C882.8,365,881.7,363.9,880.3,363.9z M880.3,372.6c-1.3,0-2.4,1.1-2.4,2.4
			c0,1.3,1.1,2.4,2.4,2.4c1.3,0,2.4-1.1,2.4-2.4C882.8,373.7,881.7,372.6,880.3,372.6z M880.3,381.2c-1.3,0-2.4,1.1-2.4,2.4
			c0,1.3,1.1,2.4,2.4,2.4c1.3,0,2.4-1.1,2.4-2.4C882.8,382.3,881.7,381.2,880.3,381.2z M880.3,476.2c-1.3,0-2.4,1.1-2.4,2.4
			c0,1.3,1.1,2.4,2.4,2.4c1.3,0,2.4-1.1,2.4-2.4C882.8,477.3,881.7,476.2,880.3,476.2z M880.3,519.4c-1.3,0-2.4,1.1-2.4,2.4
			c0,1.3,1.1,2.4,2.4,2.4c1.3,0,2.4-1.1,2.4-2.4C882.8,520.5,881.7,519.4,880.3,519.4z M880.3,528.1c-1.3,0-2.4,1.1-2.4,2.4
			c0,1.3,1.1,2.4,2.4,2.4c1.3,0,2.4-1.1,2.4-2.4C882.8,529.1,881.7,528.1,880.3,528.1z M850.6,563.7c0-1.3-1.1-2.4-2.4-2.4
			c-1.3,0-2.4,1.1-2.4,2.4s1.1,2.4,2.4,2.4C849.5,566.1,850.6,565,850.6,563.7z M871.7,191.2c-1.3,0-2.4,1.1-2.4,2.4
			c0,1.3,1.1,2.4,2.4,2.4s2.4-1.1,2.4-2.4C874.1,192.3,873,191.2,871.7,191.2z M882.8,128.3c-1.3,0-2.4,1.1-2.4,2.4
			c0,1.3,1.1,2.4,2.4,2.4c1.3,0,2.4-1.1,2.4-2.4C885.2,129.4,884.1,128.3,882.8,128.3z M871.7,251.6c-1.3,0-2.4,1.1-2.4,2.4
			c0,1.3,1.1,2.4,2.4,2.4s2.4-1.1,2.4-2.4C874.1,252.7,873,251.6,871.7,251.6z M871.7,268.9c-1.3,0-2.4,1.1-2.4,2.4
			c0,1.3,1.1,2.4,2.4,2.4s2.4-1.1,2.4-2.4C874.1,270,873,268.9,871.7,268.9z M871.7,294.8c-1.3,0-2.4,1.1-2.4,2.4
			c0,1.3,1.1,2.4,2.4,2.4s2.4-1.1,2.4-2.4C874.1,295.9,873,294.8,871.7,294.8z M811.7,457c-1.3,0-2.4,1.1-2.4,2.4
			c0,1.3,1.1,2.4,2.4,2.4s2.4-1.1,2.4-2.4C814.1,458.1,813,457,811.7,457z M934.7,733.7c-1.3,0-2.4,1.1-2.4,2.4
			c0,1.3,1.1,2.4,2.4,2.4c1.3,0,2.4-1.1,2.4-2.4C937.1,734.7,936,733.7,934.7,733.7z M871.7,389.8c-1.3,0-2.4,1.1-2.4,2.4
			c0,1.3,1.1,2.4,2.4,2.4s2.4-1.1,2.4-2.4C874.1,390.9,873,389.8,871.7,389.8z M871.7,398.5c-1.3,0-2.4,1.1-2.4,2.4
			c0,1.3,1.1,2.4,2.4,2.4s2.4-1.1,2.4-2.4C874.1,399.6,873,398.5,871.7,398.5z M871.7,176.3c0-1.3-1.1-2.4-2.4-2.4
			c-1.3,0-2.4,1.1-2.4,2.4c0,1.3,1.1,2.4,2.4,2.4C870.6,178.8,871.7,177.7,871.7,176.3z M863,247.9c1.3,0,2.4-1.1,2.4-2.4
			c0-1.3-1.1-2.4-2.4-2.4c-1.3,0-2.4,1.1-2.4,2.4C860.6,246.8,861.7,247.9,863,247.9z M863,256.5c1.3,0,2.4-1.1,2.4-2.4
			c0-1.3-1.1-2.4-2.4-2.4c-1.3,0-2.4,1.1-2.4,2.4C860.6,255.4,861.7,256.5,863,256.5z M863,291.1c1.3,0,2.4-1.1,2.4-2.4
			c0-1.3-1.1-2.4-2.4-2.4c-1.3,0-2.4,1.1-2.4,2.4C860.6,290,861.7,291.1,863,291.1z M1055.8,334.3c-1.3,0-2.4,1.1-2.4,2.4
			c0,1.3,1.1,2.4,2.4,2.4c1.3,0,2.4-1.1,2.4-2.4C1058.2,335.3,1057.1,334.3,1055.8,334.3z M863,368.8c1.3,0,2.4-1.1,2.4-2.4
			c0-1.3-1.1-2.4-2.4-2.4c-1.3,0-2.4,1.1-2.4,2.4C860.6,367.7,861.7,368.8,863,368.8z M863,386.1c1.3,0,2.4-1.1,2.4-2.4
			c0-1.3-1.1-2.4-2.4-2.4c-1.3,0-2.4,1.1-2.4,2.4C860.6,385,861.7,386.1,863,386.1z M863,412c1.3,0,2.4-1.1,2.4-2.4
			c0-1.3-1.1-2.4-2.4-2.4c-1.3,0-2.4,1.1-2.4,2.4C860.6,410.9,861.7,412,863,412z M837.1,493.5c-1.3,0-2.4,1.1-2.4,2.4
			c0,1.3,1.1,2.4,2.4,2.4c1.3,0,2.4-1.1,2.4-2.4C839.5,494.6,838.4,493.5,837.1,493.5z M865.5,478.7c0-1.3-1.1-2.4-2.4-2.4
			c-1.3,0-2.4,1.1-2.4,2.4c0,1.3,1.1,2.4,2.4,2.4C864.4,481.1,865.5,480,865.5,478.7z M854.4,156.6c-1.3,0-2.4,1.1-2.4,2.4
			c0,1.3,1.1,2.4,2.4,2.4c1.3,0,2.4-1.1,2.4-2.4C856.8,157.7,855.7,156.6,854.4,156.6z M850.6,139.3c0,1.3,1.1,2.4,2.4,2.4
			c1.3,0,2.4-1.1,2.4-2.4c0-1.3-1.1-2.4-2.4-2.4C851.7,136.9,850.6,138,850.6,139.3z M854.4,217.1c-1.3,0-2.4,1.1-2.4,2.4
			c0,1.3,1.1,2.4,2.4,2.4c1.3,0,2.4-1.1,2.4-2.4C856.8,218.2,855.7,217.1,854.4,217.1z M854.4,234.4c-1.3,0-2.4,1.1-2.4,2.4
			c0,1.3,1.1,2.4,2.4,2.4c1.3,0,2.4-1.1,2.4-2.4C856.8,235.5,855.7,234.4,854.4,234.4z M854.4,243c-1.3,0-2.4,1.1-2.4,2.4
			c0,1.3,1.1,2.4,2.4,2.4c1.3,0,2.4-1.1,2.4-2.4C856.8,244.1,855.7,243,854.4,243z M854.4,251.6c-1.3,0-2.4,1.1-2.4,2.4
			c0,1.3,1.1,2.4,2.4,2.4c1.3,0,2.4-1.1,2.4-2.4C856.8,252.7,855.7,251.6,854.4,251.6z M966.8,89.1c0-1.3-1.1-2.4-2.4-2.4
			c-1.3,0-2.4,1.1-2.4,2.4c0,1.3,1.1,2.4,2.4,2.4C965.7,91.5,966.8,90.4,966.8,89.1z M854.4,268.9c-1.3,0-2.4,1.1-2.4,2.4
			c0,1.3,1.1,2.4,2.4,2.4c1.3,0,2.4-1.1,2.4-2.4C856.8,270,855.7,268.9,854.4,268.9z M763.4,70.4c1.3,0,2.4-1.1,2.4-2.4
			c0-1.3-1.1-2.4-2.4-2.4c-1.3,0-2.4,1.1-2.4,2.4C760.9,69.3,762,70.4,763.4,70.4z M854.4,286.2c-1.3,0-2.4,1.1-2.4,2.4
			c0,1.3,1.1,2.4,2.4,2.4c1.3,0,2.4-1.1,2.4-2.4C856.8,287.3,855.7,286.2,854.4,286.2z M854.4,294.8c-1.3,0-2.4,1.1-2.4,2.4
			c0,1.3,1.1,2.4,2.4,2.4c1.3,0,2.4-1.1,2.4-2.4C856.8,295.9,855.7,294.8,854.4,294.8z M995.2,375c-1.3,0-2.4,1.1-2.4,2.4
			c0,1.3,1.1,2.4,2.4,2.4c1.3,0,2.4-1.1,2.4-2.4C997.7,376.1,996.6,375,995.2,375z M854.4,407.1c-1.3,0-2.4,1.1-2.4,2.4
			c0,1.3,1.1,2.4,2.4,2.4c1.3,0,2.4-1.1,2.4-2.4C856.8,408.2,855.7,407.1,854.4,407.1z M854.4,415.8c-1.3,0-2.4,1.1-2.4,2.4
			c0,1.3,1.1,2.4,2.4,2.4c1.3,0,2.4-1.1,2.4-2.4C856.8,416.9,855.7,415.8,854.4,415.8z M854.4,424.4c-1.3,0-2.4,1.1-2.4,2.4
			c0,1.3,1.1,2.4,2.4,2.4c1.3,0,2.4-1.1,2.4-2.4C856.8,425.5,855.7,424.4,854.4,424.4z M808.7,539.1c-1.3,0-2.4,1.1-2.4,2.4
			c0,1.3,1.1,2.4,2.4,2.4c1.3,0,2.4-1.1,2.4-2.4C811.1,540.2,810,539.1,808.7,539.1z M854.4,467.6c-1.3,0-2.4,1.1-2.4,2.4
			c0,1.3,1.1,2.4,2.4,2.4c1.3,0,2.4-1.1,2.4-2.4C856.8,468.7,855.7,467.6,854.4,467.6z M845.7,265.1c1.3,0,2.4-1.1,2.4-2.4
			c0-1.3-1.1-2.4-2.4-2.4c-1.3,0-2.4,1.1-2.4,2.4C843.3,264.1,844.4,265.1,845.7,265.1z M845.7,273.8c1.3,0,2.4-1.1,2.4-2.4
			c0-1.3-1.1-2.4-2.4-2.4c-1.3,0-2.4,1.1-2.4,2.4C843.3,272.7,844.4,273.8,845.7,273.8z M845.7,299.7c1.3,0,2.4-1.1,2.4-2.4
			c0-1.3-1.1-2.4-2.4-2.4c-1.3,0-2.4,1.1-2.4,2.4C843.3,298.6,844.4,299.7,845.7,299.7z M845.7,368.8c1.3,0,2.4-1.1,2.4-2.4
			c0-1.3-1.1-2.4-2.4-2.4c-1.3,0-2.4,1.1-2.4,2.4C843.3,367.7,844.4,368.8,845.7,368.8z M968.2,379c0-1.3-1.1-2.4-2.4-2.4
			c-1.3,0-2.4,1.1-2.4,2.4c0,1.3,1.1,2.4,2.4,2.4C967.1,381.4,968.2,380.3,968.2,379z M848.2,400.9c0-1.3-1.1-2.4-2.4-2.4
			c-1.3,0-2.4,1.1-2.4,2.4c0,1.3,1.1,2.4,2.4,2.4C847.1,403.4,848.2,402.3,848.2,400.9z M1103.7,484.7c-1.3,0-2.4,1.1-2.4,2.4
			c0,1.3,1.1,2.4,2.4,2.4c1.3,0,2.4-1.1,2.4-2.4C1106.2,485.8,1105.1,484.7,1103.7,484.7z M837.1,148c-1.3,0-2.4,1.1-2.4,2.4
			c0,1.3,1.1,2.4,2.4,2.4c1.3,0,2.4-1.1,2.4-2.4C839.5,149.1,838.4,148,837.1,148z M917.4,162.8c-1.3,0-2.4,1.1-2.4,2.4
			c0,1.3,1.1,2.4,2.4,2.4c1.3,0,2.4-1.1,2.4-2.4C919.8,163.9,918.7,162.8,917.4,162.8z M837.1,217.1c-1.3,0-2.4,1.1-2.4,2.4
			c0,1.3,1.1,2.4,2.4,2.4c1.3,0,2.4-1.1,2.4-2.4C839.5,218.2,838.4,217.1,837.1,217.1z M837.1,234.4c-1.3,0-2.4,1.1-2.4,2.4
			c0,1.3,1.1,2.4,2.4,2.4c1.3,0,2.4-1.1,2.4-2.4C839.5,235.5,838.4,234.4,837.1,234.4z M837.1,251.6c-1.3,0-2.4,1.1-2.4,2.4
			c0,1.3,1.1,2.4,2.4,2.4c1.3,0,2.4-1.1,2.4-2.4C839.5,252.7,838.4,251.6,837.1,251.6z M837.1,294.8c-1.3,0-2.4,1.1-2.4,2.4
			c0,1.3,1.1,2.4,2.4,2.4c1.3,0,2.4-1.1,2.4-2.4C839.5,295.9,838.4,294.8,837.1,294.8z M837.1,363.9c-1.3,0-2.4,1.1-2.4,2.4
			c0,1.3,1.1,2.4,2.4,2.4c1.3,0,2.4-1.1,2.4-2.4C839.5,365,838.4,363.9,837.1,363.9z M837.5,122c0-1.3-1.1-2.4-2.4-2.4
			c-1.3,0-2.4,1.1-2.4,2.4c0,1.3,1.1,2.4,2.4,2.4C836.4,124.4,837.5,123.3,837.5,122z M819.8,439.2c0-1.3-1.1-2.4-2.4-2.4
			c-1.3,0-2.4,1.1-2.4,2.4c0,1.3,1.1,2.4,2.4,2.4C818.7,441.7,819.8,440.6,819.8,439.2z M837.1,407.1c-1.3,0-2.4,1.1-2.4,2.4
			c0,1.3,1.1,2.4,2.4,2.4c1.3,0,2.4-1.1,2.4-2.4C839.5,408.2,838.4,407.1,837.1,407.1z M837.1,450.3c-1.3,0-2.4,1.1-2.4,2.4
			c0,1.3,1.1,2.4,2.4,2.4c1.3,0,2.4-1.1,2.4-2.4C839.5,451.4,838.4,450.3,837.1,450.3z M828.4,156.6c-1.3,0-2.4,1.1-2.4,2.4
			c0,1.3,1.1,2.4,2.4,2.4c1.3,0,2.4-1.1,2.4-2.4C830.9,157.7,829.8,156.6,828.4,156.6z M828.4,217.1c-1.3,0-2.4,1.1-2.4,2.4
			c0,1.3,1.1,2.4,2.4,2.4c1.3,0,2.4-1.1,2.4-2.4C830.9,218.2,829.8,217.1,828.4,217.1z M828.4,294.8c-1.3,0-2.4,1.1-2.4,2.4
			c0,1.3,1.1,2.4,2.4,2.4c1.3,0,2.4-1.1,2.4-2.4C830.9,295.9,829.8,294.8,828.4,294.8z M851.4,84.3c1.3,0,2.4-1.1,2.4-2.4
			c0-1.3-1.1-2.4-2.4-2.4c-1.3,0-2.4,1.1-2.4,2.4C849,83.2,850.1,84.3,851.4,84.3z M1218.9,344.5c0-1.3-1.1-2.4-2.4-2.4
			c-1.3,0-2.4,1.1-2.4,2.4c0,1.3,1.1,2.4,2.4,2.4C1217.8,347,1218.9,345.9,1218.9,344.5z M828.4,398.5c-1.3,0-2.4,1.1-2.4,2.4
			c0,1.3,1.1,2.4,2.4,2.4c1.3,0,2.4-1.1,2.4-2.4C830.9,399.6,829.8,398.5,828.4,398.5z M830.9,444.1c0-1.3-1.1-2.4-2.4-2.4
			c-1.3,0-2.4,1.1-2.4,2.4c0,1.3,1.1,2.4,2.4,2.4C829.8,446.5,830.9,445.5,830.9,444.1z M819.8,152.9c1.3,0,2.4-1.1,2.4-2.4
			c0-1.3-1.1-2.4-2.4-2.4c-1.3,0-2.4,1.1-2.4,2.4C817.3,151.8,818.4,152.9,819.8,152.9z M819.8,230.6c1.3,0,2.4-1.1,2.4-2.4
			c0-1.3-1.1-2.4-2.4-2.4c-1.3,0-2.4,1.1-2.4,2.4C817.3,229.5,818.4,230.6,819.8,230.6z M781.4,484.9c0-1.3-1.1-2.4-2.4-2.4
			c-1.3,0-2.4,1.1-2.4,2.4c0,1.3,1.1,2.4,2.4,2.4C780.3,487.3,781.4,486.2,781.4,484.9z M819.8,368.8c1.3,0,2.4-1.1,2.4-2.4
			c0-1.3-1.1-2.4-2.4-2.4c-1.3,0-2.4,1.1-2.4,2.4C817.3,367.7,818.4,368.8,819.8,368.8z M828.1,51.8c1.3,0,2.4-1.1,2.4-2.4
			c0-1.3-1.1-2.4-2.4-2.4c-1.3,0-2.4,1.1-2.4,2.4C825.7,50.7,826.8,51.8,828.1,51.8z M811.1,299.7c1.3,0,2.4-1.1,2.4-2.4
			c0-1.3-1.1-2.4-2.4-2.4c-1.3,0-2.4,1.1-2.4,2.4C808.7,298.6,809.8,299.7,811.1,299.7z M811.1,308.3c1.3,0,2.4-1.1,2.4-2.4
			c0-1.3-1.1-2.4-2.4-2.4c-1.3,0-2.4,1.1-2.4,2.4C808.7,307.2,809.8,308.3,811.1,308.3z M811.1,342.9c1.3,0,2.4-1.1,2.4-2.4
			c0-1.3-1.1-2.4-2.4-2.4c-1.3,0-2.4,1.1-2.4,2.4C808.7,341.8,809.8,342.9,811.1,342.9z M811.1,360.2c1.3,0,2.4-1.1,2.4-2.4
			c0-1.3-1.1-2.4-2.4-2.4c-1.3,0-2.4,1.1-2.4,2.4C808.7,359.1,809.8,360.2,811.1,360.2z M811.1,368.8c1.3,0,2.4-1.1,2.4-2.4
			c0-1.3-1.1-2.4-2.4-2.4c-1.3,0-2.4,1.1-2.4,2.4C808.7,367.7,809.8,368.8,811.1,368.8z M802.5,286.2c-1.3,0-2.4,1.1-2.4,2.4
			c0,1.3,1.1,2.4,2.4,2.4c1.3,0,2.4-1.1,2.4-2.4C804.9,287.3,803.8,286.2,802.5,286.2z M802.5,312.1c-1.3,0-2.4,1.1-2.4,2.4
			c0,1.3,1.1,2.4,2.4,2.4c1.3,0,2.4-1.1,2.4-2.4C804.9,313.2,803.8,312.1,802.5,312.1z M1062,409.6c1.3,0,2.4-1.1,2.4-2.4
			c0-1.3-1.1-2.4-2.4-2.4c-1.3,0-2.4,1.1-2.4,2.4C1059.6,408.5,1060.6,409.6,1062,409.6z M802.5,329.4c-1.3,0-2.4,1.1-2.4,2.4
			c0,1.3,1.1,2.4,2.4,2.4c1.3,0,2.4-1.1,2.4-2.4C804.9,330.5,803.8,329.4,802.5,329.4z M802.5,346.7c-1.3,0-2.4,1.1-2.4,2.4
			c0,1.3,1.1,2.4,2.4,2.4c1.3,0,2.4-1.1,2.4-2.4C804.9,347.7,803.8,346.7,802.5,346.7z M796.3,323.2c0-1.3-1.1-2.4-2.4-2.4
			c-1.3,0-2.4,1.1-2.4,2.4c0,1.3,1.1,2.4,2.4,2.4C795.2,325.6,796.3,324.5,796.3,323.2z M665.3,16.1c0-1.3-1.1-2.4-2.4-2.4
			c-1.3,0-2.4,1.1-2.4,2.4c0,1.3,1.1,2.4,2.4,2.4C664.2,18.5,665.3,17.4,665.3,16.1z M796.2,491.1c-1.3,0-2.4,1.1-2.4,2.4
			c0,1.3,1.1,2.4,2.4,2.4c1.3,0,2.4-1.1,2.4-2.4C798.7,492.2,797.6,491.1,796.2,491.1z M785.2,294.8c-1.3,0-2.4,1.1-2.4,2.4
			c0,1.3,1.1,2.4,2.4,2.4c1.3,0,2.4-1.1,2.4-2.4C787.6,295.9,786.5,294.8,785.2,294.8z M785.2,303.5c-1.3,0-2.4,1.1-2.4,2.4
			c0,1.3,1.1,2.4,2.4,2.4c1.3,0,2.4-1.1,2.4-2.4C787.6,304.6,786.5,303.5,785.2,303.5z M785.2,312.1c-1.3,0-2.4,1.1-2.4,2.4
			c0,1.3,1.1,2.4,2.4,2.4c1.3,0,2.4-1.1,2.4-2.4C787.6,313.2,786.5,312.1,785.2,312.1z M785.2,338c-1.3,0-2.4,1.1-2.4,2.4
			c0,1.3,1.1,2.4,2.4,2.4c1.3,0,2.4-1.1,2.4-2.4C787.6,339.1,786.5,338,785.2,338z M791.4,519.4c-1.3,0-2.4,1.1-2.4,2.4
			c0,1.3,1.1,2.4,2.4,2.4c1.3,0,2.4-1.1,2.4-2.4C793.8,520.5,792.7,519.4,791.4,519.4z M765.4,458.9c-1.3,0-2.4,1.1-2.4,2.4
			c0,1.3,1.1,2.4,2.4,2.4c1.3,0,2.4-1.1,2.4-2.4C767.9,460,766.8,458.9,765.4,458.9z M764.1,110c0-1.3-1.1-2.4-2.4-2.4
			c-1.3,0-2.4,1.1-2.4,2.4c0,1.3,1.1,2.4,2.4,2.4C763,112.4,764.1,111.3,764.1,110z M776.5,299.7c1.3,0,2.4-1.1,2.4-2.4
			c0-1.3-1.1-2.4-2.4-2.4c-1.3,0-2.4,1.1-2.4,2.4C774.1,298.6,775.2,299.7,776.5,299.7z M776.5,317c1.3,0,2.4-1.1,2.4-2.4
			c0-1.3-1.1-2.4-2.4-2.4c-1.3,0-2.4,1.1-2.4,2.4C774.1,315.9,775.2,317,776.5,317z M779,331.8c0-1.3-1.1-2.4-2.4-2.4
			c-1.3,0-2.4,1.1-2.4,2.4c0,1.3,1.1,2.4,2.4,2.4C777.9,334.3,779,333.2,779,331.8z M808.7,425.5c1.3,0,2.4-1.1,2.4-2.4
			c0-1.3-1.1-2.4-2.4-2.4c-1.3,0-2.4,1.1-2.4,2.4C806.2,424.4,807.3,425.5,808.7,425.5z M767.9,268.9c-1.3,0-2.4,1.1-2.4,2.4
			c0,1.3,1.1,2.4,2.4,2.4c1.3,0,2.4-1.1,2.4-2.4C770.3,270,769.2,268.9,767.9,268.9z M767.9,274.2c-1.3,0-2.4,1.1-2.4,2.4
			c0,1.3,1.1,2.4,2.4,2.4c1.3,0,2.4-1.1,2.4-2.4C770.3,275.3,769.2,274.2,767.9,274.2z M767.9,312.1c-1.3,0-2.4,1.1-2.4,2.4
			c0,1.3,1.1,2.4,2.4,2.4c1.3,0,2.4-1.1,2.4-2.4C770.3,313.2,769.2,312.1,767.9,312.1z M767.9,338c-1.3,0-2.4,1.1-2.4,2.4
			c0,1.3,1.1,2.4,2.4,2.4c1.3,0,2.4-1.1,2.4-2.4C770.3,339.1,769.2,338,767.9,338z M758.9,492.6c-1.3,0-2.4,1.1-2.4,2.4
			c0,1.3,1.1,2.4,2.4,2.4c1.3,0,2.4-1.1,2.4-2.4C761.3,493.7,760.2,492.6,758.9,492.6z M759.2,277.6c-1.3,0-2.4,1.1-2.4,2.4
			c0,1.3,1.1,2.4,2.4,2.4c1.3,0,2.4-1.1,2.4-2.4C761.6,278.6,760.6,277.6,759.2,277.6z M759.2,294.8c-1.3,0-2.4,1.1-2.4,2.4
			c0,1.3,1.1,2.4,2.4,2.4c1.3,0,2.4-1.1,2.4-2.4C761.6,295.9,760.6,294.8,759.2,294.8z M759.2,329.4c-1.3,0-2.4,1.1-2.4,2.4
			c0,1.3,1.1,2.4,2.4,2.4c1.3,0,2.4-1.1,2.4-2.4C761.6,330.5,760.6,329.4,759.2,329.4z M707.3,152.9c1.3,0,2.4-1.1,2.4-2.4
			c0-1.3-1.1-2.4-2.4-2.4c-1.3,0-2.4,1.1-2.4,2.4C704.9,151.8,706,152.9,707.3,152.9z M690,148c-1.3,0-2.4,1.1-2.4,2.4
			c0,1.3,1.1,2.4,2.4,2.4c1.3,0,2.4-1.1,2.4-2.4C692.4,149.1,691.4,148,690,148z M681.4,144.2c1.3,0,2.4-1.1,2.4-2.4
			c0-1.3-1.1-2.4-2.4-2.4s-2.4,1.1-2.4,2.4C678.9,143.1,680,144.2,681.4,144.2z M681.4,152.9c1.3,0,2.4-1.1,2.4-2.4
			c0-1.3-1.1-2.4-2.4-2.4s-2.4,1.1-2.4,2.4C678.9,151.8,680,152.9,681.4,152.9z M672.7,144.2c1.3,0,2.4-1.1,2.4-2.4
			c0-1.3-1.1-2.4-2.4-2.4c-1.3,0-2.4,1.1-2.4,2.4C670.3,143.1,671.4,144.2,672.7,144.2z M750.6,268.9c-1.3,0-2.4,1.1-2.4,2.4
			c0,1.3,1.1,2.4,2.4,2.4c1.3,0,2.4-1.1,2.4-2.4C753,270,751.9,268.9,750.6,268.9z M750.6,286.2c-1.3,0-2.4,1.1-2.4,2.4
			c0,1.3,1.1,2.4,2.4,2.4c1.3,0,2.4-1.1,2.4-2.4C753,287.3,751.9,286.2,750.6,286.2z M750.6,303.5c-1.3,0-2.4,1.1-2.4,2.4
			c0,1.3,1.1,2.4,2.4,2.4c1.3,0,2.4-1.1,2.4-2.4C753,304.6,751.9,303.5,750.6,303.5z M750.6,338c-1.3,0-2.4,1.1-2.4,2.4
			c0,1.3,1.1,2.4,2.4,2.4c1.3,0,2.4-1.1,2.4-2.4C753,339.1,751.9,338,750.6,338z M741.9,265.1c1.3,0,2.4-1.1,2.4-2.4
			c0-1.3-1.1-2.4-2.4-2.4c-1.3,0-2.4,1.1-2.4,2.4C739.5,264.1,740.6,265.1,741.9,265.1z M741.9,282.4c1.3,0,2.4-1.1,2.4-2.4
			c0-1.3-1.1-2.4-2.4-2.4c-1.3,0-2.4,1.1-2.4,2.4C739.5,281.3,740.6,282.4,741.9,282.4z M741.9,308.3c1.3,0,2.4-1.1,2.4-2.4
			c0-1.3-1.1-2.4-2.4-2.4c-1.3,0-2.4,1.1-2.4,2.4C739.5,307.2,740.6,308.3,741.9,308.3z M741.9,325.6c1.3,0,2.4-1.1,2.4-2.4
			c0-1.3-1.1-2.4-2.4-2.4c-1.3,0-2.4,1.1-2.4,2.4C739.5,324.5,740.6,325.6,741.9,325.6z M744.3,331.8c0-1.3-1.1-2.4-2.4-2.4
			c-1.3,0-2.4,1.1-2.4,2.4c0,1.3,1.1,2.4,2.4,2.4C743.3,334.3,744.3,333.2,744.3,331.8z M668.9,185c1.3,0,2.4-1.1,2.4-2.4
			c0-1.3-1.1-2.4-2.4-2.4c-1.3,0-2.4,1.1-2.4,2.4C666.5,183.9,667.6,185,668.9,185z M940.9,425.5c1.3,0,2.4-1.1,2.4-2.4
			c0-1.3-1.1-2.4-2.4-2.4c-1.3,0-2.4,1.1-2.4,2.4C938.4,424.4,939.5,425.5,940.9,425.5z M733.3,273.8c1.3,0,2.4-1.1,2.4-2.4
			c0-1.3-1.1-2.4-2.4-2.4c-1.3,0-2.4,1.1-2.4,2.4C730.8,272.7,731.9,273.8,733.3,273.8z M733.3,282.4c1.3,0,2.4-1.1,2.4-2.4
			c0-1.3-1.1-2.4-2.4-2.4c-1.3,0-2.4,1.1-2.4,2.4C730.8,281.3,731.9,282.4,733.3,282.4z M733.3,317c1.3,0,2.4-1.1,2.4-2.4
			c0-1.3-1.1-2.4-2.4-2.4c-1.3,0-2.4,1.1-2.4,2.4C730.8,315.9,731.9,317,733.3,317z M733.3,334.3c1.3,0,2.4-1.1,2.4-2.4
			c0-1.3-1.1-2.4-2.4-2.4c-1.3,0-2.4,1.1-2.4,2.4C730.8,333.2,731.9,334.3,733.3,334.3z M733.3,351.5c1.3,0,2.4-1.1,2.4-2.4
			c0-1.3-1.1-2.4-2.4-2.4c-1.3,0-2.4,1.1-2.4,2.4C730.8,350.4,731.9,351.5,733.3,351.5z M733.3,366.4c0-1.3-1.1-2.4-2.4-2.4
			c-1.3,0-2.4,1.1-2.4,2.4c0,1.3,1.1,2.4,2.4,2.4C732.2,368.8,733.3,367.7,733.3,366.4z M733.3,372.6c-1.3,0-2.4,1.1-2.4,2.4
			c0,1.3,1.1,2.4,2.4,2.4c1.3,0,2.4-1.1,2.4-2.4C735.7,373.7,734.6,372.6,733.3,372.6z M724.6,273.8c1.3,0,2.4-1.1,2.4-2.4
			c0-1.3-1.1-2.4-2.4-2.4c-1.3,0-2.4,1.1-2.4,2.4C722.2,272.7,723.3,273.8,724.6,273.8z M724.6,299.7c1.3,0,2.4-1.1,2.4-2.4
			c0-1.3-1.1-2.4-2.4-2.4c-1.3,0-2.4,1.1-2.4,2.4C722.2,298.6,723.3,299.7,724.6,299.7z M415.6,662.5c-1.3,0-2.4,1.1-2.4,2.4
			c0,1.3,1.1,2.4,2.4,2.4c1.3,0,2.4-1.1,2.4-2.4C418,663.6,416.9,662.5,415.6,662.5z M724.6,317c1.3,0,2.4-1.1,2.4-2.4
			c0-1.3-1.1-2.4-2.4-2.4c-1.3,0-2.4,1.1-2.4,2.4C722.2,315.9,723.3,317,724.6,317z M724.6,342.9c1.3,0,2.4-1.1,2.4-2.4
			c0-1.3-1.1-2.4-2.4-2.4c-1.3,0-2.4,1.1-2.4,2.4C722.2,341.8,723.3,342.9,724.6,342.9z M724.6,351.5c1.3,0,2.4-1.1,2.4-2.4
			c0-1.3-1.1-2.4-2.4-2.4c-1.3,0-2.4,1.1-2.4,2.4C722.2,350.4,723.3,351.5,724.6,351.5z M724.6,402.3c-1.3,0-2.4,1.1-2.4,2.4
			c0,1.3,1.1,2.4,2.4,2.4c1.3,0,2.4-1.1,2.4-2.4C727,403.3,726,402.3,724.6,402.3z M716,182.5c-1.3,0-2.4,1.1-2.4,2.4
			c0,1.3,1.1,2.4,2.4,2.4c1.3,0,2.4-1.1,2.4-2.4C718.4,183.6,717.3,182.5,716,182.5z M716,191.2c-1.3,0-2.4,1.1-2.4,2.4
			c0,1.3,1.1,2.4,2.4,2.4c1.3,0,2.4-1.1,2.4-2.4C718.4,192.3,717.3,191.2,716,191.2z M716,199.8c-1.3,0-2.4,1.1-2.4,2.4
			c0,1.3,1.1,2.4,2.4,2.4c1.3,0,2.4-1.1,2.4-2.4C718.4,200.9,717.3,199.8,716,199.8z M716,217.1c-1.3,0-2.4,1.1-2.4,2.4
			c0,1.3,1.1,2.4,2.4,2.4c1.3,0,2.4-1.1,2.4-2.4C718.4,218.2,717.3,217.1,716,217.1z M716,234.4c-1.3,0-2.4,1.1-2.4,2.4
			c0,1.3,1.1,2.4,2.4,2.4c1.3,0,2.4-1.1,2.4-2.4C718.4,235.5,717.3,234.4,716,234.4z M716,268.9c-1.3,0-2.4,1.1-2.4,2.4
			c0,1.3,1.1,2.4,2.4,2.4c1.3,0,2.4-1.1,2.4-2.4C718.4,270,717.3,268.9,716,268.9z M716,277.6c-1.3,0-2.4,1.1-2.4,2.4
			c0,1.3,1.1,2.4,2.4,2.4c1.3,0,2.4-1.1,2.4-2.4C718.4,278.6,717.3,277.6,716,277.6z M716,294.8c-1.3,0-2.4,1.1-2.4,2.4
			c0,1.3,1.1,2.4,2.4,2.4c1.3,0,2.4-1.1,2.4-2.4C718.4,295.9,717.3,294.8,716,294.8z M716,303.5c-1.3,0-2.4,1.1-2.4,2.4
			c0,1.3,1.1,2.4,2.4,2.4c1.3,0,2.4-1.1,2.4-2.4C718.4,304.6,717.3,303.5,716,303.5z M716,320.7c-1.3,0-2.4,1.1-2.4,2.4
			c0,1.3,1.1,2.4,2.4,2.4c1.3,0,2.4-1.1,2.4-2.4C718.4,321.8,717.3,320.7,716,320.7z M716,363.9c-1.3,0-2.4,1.1-2.4,2.4
			c0,1.3,1.1,2.4,2.4,2.4c1.3,0,2.4-1.1,2.4-2.4C718.4,365,717.3,363.9,716,363.9z M716,389.8c-1.3,0-2.4,1.1-2.4,2.4
			c0,1.3,1.1,2.4,2.4,2.4c1.3,0,2.4-1.1,2.4-2.4C718.4,390.9,717.3,389.8,716,389.8z M707.3,196c1.3,0,2.4-1.1,2.4-2.4
			c0-1.3-1.1-2.4-2.4-2.4c-1.3,0-2.4,1.1-2.4,2.4C704.9,195,706,196,707.3,196z M707.3,204.7c1.3,0,2.4-1.1,2.4-2.4
			c0-1.3-1.1-2.4-2.4-2.4c-1.3,0-2.4,1.1-2.4,2.4C704.9,203.6,706,204.7,707.3,204.7z M707.3,222c1.3,0,2.4-1.1,2.4-2.4
			c0-1.3-1.1-2.4-2.4-2.4c-1.3,0-2.4,1.1-2.4,2.4C704.9,220.9,706,222,707.3,222z M796.3,0c-1.3,0-2.4,1.1-2.4,2.4
			c0,1.3,1.1,2.4,2.4,2.4c1.3,0,2.4-1.1,2.4-2.4C798.7,1.1,797.7,0,796.3,0z M631.3,736.7c-1.3,0-2.4,1.1-2.4,2.4
			c0,1.3,1.1,2.4,2.4,2.4c1.3,0,2.4-1.1,2.4-2.4C633.7,737.8,632.7,736.7,631.3,736.7z M735.7,404.7c0-1.3-1.1-2.4-2.4-2.4
			c-1.3,0-2.4,1.1-2.4,2.4c0,1.3,1.1,2.4,2.4,2.4C734.6,407.1,735.7,406,735.7,404.7z M707.3,403.4c1.3,0,2.4-1.1,2.4-2.4
			c0-1.3-1.1-2.4-2.4-2.4c-1.3,0-2.4,1.1-2.4,2.4C704.9,402.3,706,403.4,707.3,403.4z M698.7,199.8c-1.3,0-2.4,1.1-2.4,2.4
			c0,1.3,1.1,2.4,2.4,2.4c1.3,0,2.4-1.1,2.4-2.4C701.1,200.9,700,199.8,698.7,199.8z M698.7,234.4c-1.3,0-2.4,1.1-2.4,2.4
			c0,1.3,1.1,2.4,2.4,2.4c1.3,0,2.4-1.1,2.4-2.4C701.1,235.5,700,234.4,698.7,234.4z M725.7,89c-1.3,0-2.4,1.1-2.4,2.4
			c0,1.3,1.1,2.4,2.4,2.4c1.3,0,2.4-1.1,2.4-2.4C728.1,90.1,727,89,725.7,89z M698.7,303.5c-1.3,0-2.4,1.1-2.4,2.4
			c0,1.3,1.1,2.4,2.4,2.4c1.3,0,2.4-1.1,2.4-2.4C701.1,304.6,700,303.5,698.7,303.5z M698.7,320.7c-1.3,0-2.4,1.1-2.4,2.4
			c0,1.3,1.1,2.4,2.4,2.4c1.3,0,2.4-1.1,2.4-2.4C701.1,321.8,700,320.7,698.7,320.7z M698.7,363.9c-1.3,0-2.4,1.1-2.4,2.4
			c0,1.3,1.1,2.4,2.4,2.4c1.3,0,2.4-1.1,2.4-2.4C701.1,365,700,363.9,698.7,363.9z M698.7,381.2c-1.3,0-2.4,1.1-2.4,2.4
			c0,1.3,1.1,2.4,2.4,2.4c1.3,0,2.4-1.1,2.4-2.4C701.1,382.3,700,381.2,698.7,381.2z M698.7,389.8c-1.3,0-2.4,1.1-2.4,2.4
			c0,1.3,1.1,2.4,2.4,2.4c1.3,0,2.4-1.1,2.4-2.4C701.1,390.9,700,389.8,698.7,389.8z M701.1,400.9c0-1.3-1.1-2.4-2.4-2.4
			c-1.3,0-2.4,1.1-2.4,2.4c0,1.3,1.1,2.4,2.4,2.4C700,403.4,701.1,402.3,701.1,400.9z M707.3,500.8c1.3,0,2.4-1.1,2.4-2.4
			c0-1.3-1.1-2.4-2.4-2.4c-1.3,0-2.4,1.1-2.4,2.4C704.9,499.7,706,500.8,707.3,500.8z M735.7,545.3c-1.3,0-2.4,1.1-2.4,2.4
			c0,1.3,1.1,2.4,2.4,2.4c1.3,0,2.4-1.1,2.4-2.4C738.1,546.4,737,545.3,735.7,545.3z M690,208.4c-1.3,0-2.4,1.1-2.4,2.4
			c0,1.3,1.1,2.4,2.4,2.4c1.3,0,2.4-1.1,2.4-2.4C692.4,209.5,691.4,208.4,690,208.4z M690,217.1c-1.3,0-2.4,1.1-2.4,2.4
			c0,1.3,1.1,2.4,2.4,2.4c1.3,0,2.4-1.1,2.4-2.4C692.4,218.2,691.4,217.1,690,217.1z M690,234.4c-1.3,0-2.4,1.1-2.4,2.4
			c0,1.3,1.1,2.4,2.4,2.4c1.3,0,2.4-1.1,2.4-2.4C692.4,235.5,691.4,234.4,690,234.4z M690,286.2c-1.3,0-2.4,1.1-2.4,2.4
			c0,1.3,1.1,2.4,2.4,2.4c1.3,0,2.4-1.1,2.4-2.4C692.4,287.3,691.4,286.2,690,286.2z M690,294.8c-1.3,0-2.4,1.1-2.4,2.4
			c0,1.3,1.1,2.4,2.4,2.4c1.3,0,2.4-1.1,2.4-2.4C692.4,295.9,691.4,294.8,690,294.8z M690,312.1c-1.3,0-2.4,1.1-2.4,2.4
			c0,1.3,1.1,2.4,2.4,2.4c1.3,0,2.4-1.1,2.4-2.4C692.4,313.2,691.4,312.1,690,312.1z M690,372.6c-1.3,0-2.4,1.1-2.4,2.4
			c0,1.3,1.1,2.4,2.4,2.4c1.3,0,2.4-1.1,2.4-2.4C692.4,373.7,691.4,372.6,690,372.6z M690,493.5c-1.3,0-2.4,1.1-2.4,2.4
			c0,1.3,1.1,2.4,2.4,2.4c1.3,0,2.4-1.1,2.4-2.4C692.4,494.6,691.4,493.5,690,493.5z M690,502.1c-1.3,0-2.4,1.1-2.4,2.4
			c0,1.3,1.1,2.4,2.4,2.4c1.3,0,2.4-1.1,2.4-2.4C692.4,503.2,691.4,502.1,690,502.1z M690,510.8c-1.3,0-2.4,1.1-2.4,2.4
			c0,1.3,1.1,2.4,2.4,2.4c1.3,0,2.4-1.1,2.4-2.4C692.4,511.9,691.4,510.8,690,510.8z M744.3,537.8c1.3,0,2.4-1.1,2.4-2.4
			c0-1.3-1.1-2.4-2.4-2.4c-1.3,0-2.4,1.1-2.4,2.4C741.9,536.7,743,537.8,744.3,537.8z M486.2,268.9c-1.3,0-2.4,1.1-2.4,2.4
			c0,1.3,1.1,2.4,2.4,2.4c1.3,0,2.4-1.1,2.4-2.4C488.6,270,487.5,268.9,486.2,268.9z M698.4,48.5c1.3,0,2.4-1.1,2.4-2.4
			c0-1.3-1.1-2.4-2.4-2.4c-1.3,0-2.4,1.1-2.4,2.4C695.9,47.4,697,48.5,698.4,48.5z M678.9,191.2c0-1.3-1.1-2.4-2.4-2.4
			c-1.3,0-2.4,1.1-2.4,2.4c0,1.3,1.1,2.4,2.4,2.4C677.8,193.6,678.9,192.5,678.9,191.2z M681.4,294.8c-1.3,0-2.4,1.1-2.4,2.4
			c0,1.3,1.1,2.4,2.4,2.4s2.4-1.1,2.4-2.4C683.8,295.9,682.7,294.8,681.4,294.8z M681.4,303.5c-1.3,0-2.4,1.1-2.4,2.4
			c0,1.3,1.1,2.4,2.4,2.4s2.4-1.1,2.4-2.4C683.8,304.6,682.7,303.5,681.4,303.5z M560.2,286.2c-1.3,0-2.4,1.1-2.4,2.4
			c0,1.3,1.1,2.4,2.4,2.4c1.3,0,2.4-1.1,2.4-2.4C562.7,287.3,561.6,286.2,560.2,286.2z M551.6,277.6c-1.3,0-2.4,1.1-2.4,2.4
			c0,1.3,1.1,2.4,2.4,2.4c1.3,0,2.4-1.1,2.4-2.4C554,278.6,552.9,277.6,551.6,277.6z M551.6,251.6c-1.3,0-2.4,1.1-2.4,2.4
			c0,1.3,1.1,2.4,2.4,2.4c1.3,0,2.4-1.1,2.4-2.4C554,252.7,552.9,251.6,551.6,251.6z M542.9,265.1c1.3,0,2.4-1.1,2.4-2.4
			c0-1.3-1.1-2.4-2.4-2.4c-1.3,0-2.4,1.1-2.4,2.4C540.5,264.1,541.6,265.1,542.9,265.1z M542.9,282.4c1.3,0,2.4-1.1,2.4-2.4
			c0-1.3-1.1-2.4-2.4-2.4c-1.3,0-2.4,1.1-2.4,2.4C540.5,281.3,541.6,282.4,542.9,282.4z M534.3,265.1c1.3,0,2.4-1.1,2.4-2.4
			c0-1.3-1.1-2.4-2.4-2.4c-1.3,0-2.4,1.1-2.4,2.4C531.9,264.1,532.9,265.1,534.3,265.1z M534.3,291.1c1.3,0,2.4-1.1,2.4-2.4
			c0-1.3-1.1-2.4-2.4-2.4c-1.3,0-2.4,1.1-2.4,2.4C531.9,290,532.9,291.1,534.3,291.1z M525.6,243c-1.3,0-2.4,1.1-2.4,2.4
			c0,1.3,1.1,2.4,2.4,2.4c1.3,0,2.4-1.1,2.4-2.4C528.1,244.1,527,243,525.6,243z M525.6,268.9c-1.3,0-2.4,1.1-2.4,2.4
			c0,1.3,1.1,2.4,2.4,2.4c1.3,0,2.4-1.1,2.4-2.4C528.1,270,527,268.9,525.6,268.9z M525.6,277.6c-1.3,0-2.4,1.1-2.4,2.4
			c0,1.3,1.1,2.4,2.4,2.4c1.3,0,2.4-1.1,2.4-2.4C528.1,278.6,527,277.6,525.6,277.6z M517,277.6c-1.3,0-2.4,1.1-2.4,2.4
			c0,1.3,1.1,2.4,2.4,2.4c1.3,0,2.4-1.1,2.4-2.4C519.4,278.6,518.3,277.6,517,277.6z M681.4,381.2c-1.3,0-2.4,1.1-2.4,2.4
			c0,1.3,1.1,2.4,2.4,2.4s2.4-1.1,2.4-2.4C683.8,382.3,682.7,381.2,681.4,381.2z M681.4,389.8c-1.3,0-2.4,1.1-2.4,2.4
			c0,1.3,1.1,2.4,2.4,2.4s2.4-1.1,2.4-2.4C683.8,390.9,682.7,389.8,681.4,389.8z M724.6,517c-1.3,0-2.4,1.1-2.4,2.4
			c0,1.3,1.1,2.4,2.4,2.4c1.3,0,2.4-1.1,2.4-2.4C727,518.1,726,517,724.6,517z M681.4,510.8c-1.3,0-2.4,1.1-2.4,2.4
			c0,1.3,1.1,2.4,2.4,2.4s2.4-1.1,2.4-2.4C683.8,511.9,682.7,510.8,681.4,510.8z M681.4,519.4c-1.3,0-2.4,1.1-2.4,2.4
			c0,1.3,1.1,2.4,2.4,2.4s2.4-1.1,2.4-2.4C683.8,520.5,682.7,519.4,681.4,519.4z M681.4,528.1c-1.3,0-2.4,1.1-2.4,2.4
			c0,1.3,1.1,2.4,2.4,2.4s2.4-1.1,2.4-2.4C683.8,529.1,682.7,528.1,681.4,528.1z M698.7,171.5c0-1.3-1.1-2.4-2.4-2.4
			c-1.3,0-2.4,1.1-2.4,2.4c0,1.3,1.1,2.4,2.4,2.4C697.6,173.9,698.7,172.8,698.7,171.5z M672.7,312.1c-1.3,0-2.4,1.1-2.4,2.4
			c0,1.3,1.1,2.4,2.4,2.4c1.3,0,2.4-1.1,2.4-2.4C675.1,313.2,674,312.1,672.7,312.1z M606.7,75c-1.3,0-2.4,1.1-2.4,2.4
			c0,1.3,1.1,2.4,2.4,2.4c1.3,0,2.4-1.1,2.4-2.4C609.1,76.1,608,75,606.7,75z M672.7,346.7c-1.3,0-2.4,1.1-2.4,2.4
			c0,1.3,1.1,2.4,2.4,2.4c1.3,0,2.4-1.1,2.4-2.4C675.1,347.7,674,346.7,672.7,346.7z M672.7,372.6c-1.3,0-2.4,1.1-2.4,2.4
			c0,1.3,1.1,2.4,2.4,2.4c1.3,0,2.4-1.1,2.4-2.4C675.1,373.7,674,372.6,672.7,372.6z M672.7,389.8c-1.3,0-2.4,1.1-2.4,2.4
			c0,1.3,1.1,2.4,2.4,2.4c1.3,0,2.4-1.1,2.4-2.4C675.1,390.9,674,389.8,672.7,389.8z M586.2,135.6c1.3,0,2.4-1.1,2.4-2.4
			c0-1.3-1.1-2.4-2.4-2.4c-1.3,0-2.4,1.1-2.4,2.4C583.8,134.5,584.8,135.6,586.2,135.6z M661.6,271.3c0,1.3,1.1,2.4,2.4,2.4
			c1.3,0,2.4-1.1,2.4-2.4c0-1.3-1.1-2.4-2.4-2.4C662.7,268.9,661.6,270,661.6,271.3z M664,286.2c-1.3,0-2.4,1.1-2.4,2.4
			c0,1.3,1.1,2.4,2.4,2.4c1.3,0,2.4-1.1,2.4-2.4C666.5,287.3,665.4,286.2,664,286.2z M664,303.5c-1.3,0-2.4,1.1-2.4,2.4
			c0,1.3,1.1,2.4,2.4,2.4c1.3,0,2.4-1.1,2.4-2.4C666.5,304.6,665.4,303.5,664,303.5z M664,312.1c-1.3,0-2.4,1.1-2.4,2.4
			c0,1.3,1.1,2.4,2.4,2.4c1.3,0,2.4-1.1,2.4-2.4C666.5,313.2,665.4,312.1,664,312.1z M664,329.4c-1.3,0-2.4,1.1-2.4,2.4
			c0,1.3,1.1,2.4,2.4,2.4c1.3,0,2.4-1.1,2.4-2.4C666.5,330.5,665.4,329.4,664,329.4z M664,355.3c-1.3,0-2.4,1.1-2.4,2.4
			c0,1.3,1.1,2.4,2.4,2.4c1.3,0,2.4-1.1,2.4-2.4C666.5,356.4,665.4,355.3,664,355.3z M664,372.6c-1.3,0-2.4,1.1-2.4,2.4
			c0,1.3,1.1,2.4,2.4,2.4c1.3,0,2.4-1.1,2.4-2.4C666.5,373.7,665.4,372.6,664,372.6z M666.5,392.3c0-1.3-1.1-2.4-2.4-2.4
			c-1.3,0-2.4,1.1-2.4,2.4c0,1.3,1.1,2.4,2.4,2.4C665.4,394.7,666.5,393.6,666.5,392.3z M737,493c-1.3,0-2.4,1.1-2.4,2.4
			c0,1.3,1.1,2.4,2.4,2.4c1.3,0,2.4-1.1,2.4-2.4C739.5,494.1,738.4,493,737,493z M681.4,552.6c0-1.3-1.1-2.4-2.4-2.4
			c-1.3,0-2.4,1.1-2.4,2.4c0,1.3,1.1,2.4,2.4,2.4C680.3,555.1,681.4,554,681.4,552.6z M499.7,225.7c-1.3,0-2.4,1.1-2.4,2.4
			c0,1.3,1.1,2.4,2.4,2.4c1.3,0,2.4-1.1,2.4-2.4C502.1,226.8,501,225.7,499.7,225.7z M491,234.4c-1.3,0-2.4,1.1-2.4,2.4
			c0,1.3,1.1,2.4,2.4,2.4c1.3,0,2.4-1.1,2.4-2.4C493.5,235.5,492.4,234.4,491,234.4z M482.4,230.6c1.3,0,2.4-1.1,2.4-2.4
			c0-1.3-1.1-2.4-2.4-2.4c-1.3,0-2.4,1.1-2.4,2.4C479.9,229.5,481,230.6,482.4,230.6z M484.8,236.8c0-1.3-1.1-2.4-2.4-2.4
			c-1.3,0-2.4,1.1-2.4,2.4c0,1.3,1.1,2.4,2.4,2.4C483.7,239.2,484.8,238.1,484.8,236.8z M655.4,403.4c1.3,0,2.4-1.1,2.4-2.4
			c0-1.3-1.1-2.4-2.4-2.4c-1.3,0-2.4,1.1-2.4,2.4C653,402.3,654,403.4,655.4,403.4z M671.4,493.5c-1.3,0-2.4,1.1-2.4,2.4
			c0,1.3,1.1,2.4,2.4,2.4c1.3,0,2.4-1.1,2.4-2.4C673.8,494.6,672.7,493.5,671.4,493.5z M655.4,507c1.3,0,2.4-1.1,2.4-2.4
			c0-1.3-1.1-2.4-2.4-2.4c-1.3,0-2.4,1.1-2.4,2.4C653,505.9,654,507,655.4,507z M655.4,524.3c1.3,0,2.4-1.1,2.4-2.4
			c0-1.3-1.1-2.4-2.4-2.4c-1.3,0-2.4,1.1-2.4,2.4C653,523.2,654,524.3,655.4,524.3z M657.8,530.5c0-1.3-1.1-2.4-2.4-2.4
			c-1.3,0-2.4,1.1-2.4,2.4c0,1.3,1.1,2.4,2.4,2.4C656.7,532.9,657.8,531.8,657.8,530.5z M1152.2,225.4c0-1.3-1.1-2.4-2.4-2.4
			c-1.3,0-2.4,1.1-2.4,2.4c0,1.3,1.1,2.4,2.4,2.4C1151.1,227.9,1152.2,226.8,1152.2,225.4z M915.7,26.5c1.3,0,2.4-1.1,2.4-2.4
			c0-1.3-1.1-2.4-2.4-2.4c-1.3,0-2.4,1.1-2.4,2.4C913.3,25.4,914.4,26.5,915.7,26.5z M646.7,294.8c-1.3,0-2.4,1.1-2.4,2.4
			c0,1.3,1.1,2.4,2.4,2.4c1.3,0,2.4-1.1,2.4-2.4C649.2,295.9,648.1,294.8,646.7,294.8z M646.7,389.8c-1.3,0-2.4,1.1-2.4,2.4
			c0,1.3,1.1,2.4,2.4,2.4c1.3,0,2.4-1.1,2.4-2.4C649.2,390.9,648.1,389.8,646.7,389.8z M744.7,821.6c-1.3,0-2.4,1.1-2.4,2.4
			c0,1.3,1.1,2.4,2.4,2.4c1.3,0,2.4-1.1,2.4-2.4C747.2,822.7,746.1,821.6,744.7,821.6z M646.7,493.5c-1.3,0-2.4,1.1-2.4,2.4
			c0,1.3,1.1,2.4,2.4,2.4c1.3,0,2.4-1.1,2.4-2.4C649.2,494.6,648.1,493.5,646.7,493.5z M646.7,510.8c-1.3,0-2.4,1.1-2.4,2.4
			c0,1.3,1.1,2.4,2.4,2.4c1.3,0,2.4-1.1,2.4-2.4C649.2,511.9,648.1,510.8,646.7,510.8z M646.7,528.1c-1.3,0-2.4,1.1-2.4,2.4
			c0,1.3,1.1,2.4,2.4,2.4c1.3,0,2.4-1.1,2.4-2.4C649.2,529.1,648.1,528.1,646.7,528.1z M627,124.5c1.3,0,2.4-1.1,2.4-2.4
			c0-1.3-1.1-2.4-2.4-2.4c-1.3,0-2.4,1.1-2.4,2.4C624.6,123.4,625.7,124.5,627,124.5z M545.1,39.9c1.3,0,2.4-1.1,2.4-2.4
			c0-1.3-1.1-2.4-2.4-2.4c-1.3,0-2.4,1.1-2.4,2.4C542.7,38.8,543.8,39.9,545.1,39.9z M638.1,398.5c-1.3,0-2.4,1.1-2.4,2.4
			c0,1.3,1.1,2.4,2.4,2.4c1.3,0,2.4-1.1,2.4-2.4C640.5,399.6,639.4,398.5,638.1,398.5z M657.8,552.6c-1.3,0-2.4,1.1-2.4,2.4
			c0,1.3,1.1,2.4,2.4,2.4c1.3,0,2.4-1.1,2.4-2.4C660.3,553.7,659.2,552.6,657.8,552.6z M638.1,519.4c-1.3,0-2.4,1.1-2.4,2.4
			c0,1.3,1.1,2.4,2.4,2.4c1.3,0,2.4-1.1,2.4-2.4C640.5,520.5,639.4,519.4,638.1,519.4z M681.4,597.2c-1.3,0-2.4,1.1-2.4,2.4
			c0,1.3,1.1,2.4,2.4,2.4c1.3,0,2.4-1.1,2.4-2.4C683.8,598.2,682.7,597.2,681.4,597.2z M657.8,591c-1.3,0-2.4,1.1-2.4,2.4
			s1.1,2.4,2.4,2.4c1.3,0,2.4-1.1,2.4-2.4S659.2,591,657.8,591z M638.1,545.3c-1.3,0-2.4,1.1-2.4,2.4c0,1.3,1.1,2.4,2.4,2.4
			c1.3,0,2.4-1.1,2.4-2.4C640.5,546.4,639.4,545.3,638.1,545.3z M627,150.4c0,1.3,1.1,2.4,2.4,2.4c1.3,0,2.4-1.1,2.4-2.4
			c0-1.3-1.1-2.4-2.4-2.4C628.1,148,627,149.1,627,150.4z M562.7,129.4c1.3,0,2.4-1.1,2.4-2.4c0-1.3-1.1-2.4-2.4-2.4
			c-1.3,0-2.4,1.1-2.4,2.4C560.2,128.3,561.3,129.4,562.7,129.4z M629.4,381.2c-1.3,0-2.4,1.1-2.4,2.4c0,1.3,1.1,2.4,2.4,2.4
			c1.3,0,2.4-1.1,2.4-2.4C631.9,382.3,630.8,381.2,629.4,381.2z M629.4,441.7c-1.3,0-2.4,1.1-2.4,2.4c0,1.3,1.1,2.4,2.4,2.4
			c1.3,0,2.4-1.1,2.4-2.4C631.9,442.8,630.8,441.7,629.4,441.7z M566.4,563.7c1.3,0,2.4-1.1,2.4-2.4c0-1.3-1.1-2.4-2.4-2.4
			c-1.3,0-2.4,1.1-2.4,2.4C564,562.6,565.1,563.7,566.4,563.7z M546.7,545.3c-1.3,0-2.4,1.1-2.4,2.4c0,1.3,1.1,2.4,2.4,2.4
			c1.3,0,2.4-1.1,2.4-2.4C549.2,546.4,548.1,545.3,546.7,545.3z M614.6,575c-1.3,0-2.4,1.1-2.4,2.4c0,1.3,1.1,2.4,2.4,2.4
			c1.3,0,2.4-1.1,2.4-2.4C617,576.1,615.9,575,614.6,575z M631.9,582.3c-1.3,0-2.4,1.1-2.4,2.4c0,1.3,1.1,2.4,2.4,2.4
			c1.3,0,2.4-1.1,2.4-2.4C634.3,583.4,633.2,582.3,631.9,582.3z M724.6,594.7c-1.3,0-2.4,1.1-2.4,2.4c0,1.3,1.1,2.4,2.4,2.4
			c1.3,0,2.4-1.1,2.4-2.4C727,595.8,726,594.7,724.6,594.7z M631.9,556.4c0-1.3-1.1-2.4-2.4-2.4c-1.3,0-2.4,1.1-2.4,2.4
			c0,1.3,1.1,2.4,2.4,2.4C630.8,558.8,631.9,557.7,631.9,556.4z M620.8,152.9c1.3,0,2.4-1.1,2.4-2.4c0-1.3-1.1-2.4-2.4-2.4
			c-1.3,0-2.4,1.1-2.4,2.4C618.4,151.8,619.4,152.9,620.8,152.9z M620.8,170.1c1.3,0,2.4-1.1,2.4-2.4c0-1.3-1.1-2.4-2.4-2.4
			c-1.3,0-2.4,1.1-2.4,2.4C618.4,169,619.4,170.1,620.8,170.1z M620.8,256.5c1.3,0,2.4-1.1,2.4-2.4c0-1.3-1.1-2.4-2.4-2.4
			c-1.3,0-2.4,1.1-2.4,2.4C618.4,255.4,619.4,256.5,620.8,256.5z M432.9,303.5c0,1.3,1.1,2.4,2.4,2.4c1.3,0,2.4-1.1,2.4-2.4
			c0-1.3-1.1-2.4-2.4-2.4C434,301,432.9,302.1,432.9,303.5z M690.8,82.4c-1.3,0-2.4,1.1-2.4,2.4c0,1.3,1.1,2.4,2.4,2.4
			c1.3,0,2.4-1.1,2.4-2.4C693.2,83.5,692.1,82.4,690.8,82.4z M620.8,342.9c1.3,0,2.4-1.1,2.4-2.4c0-1.3-1.1-2.4-2.4-2.4
			c-1.3,0-2.4,1.1-2.4,2.4C618.4,341.8,619.4,342.9,620.8,342.9z M620.8,368.8c1.3,0,2.4-1.1,2.4-2.4c0-1.3-1.1-2.4-2.4-2.4
			c-1.3,0-2.4,1.1-2.4,2.4C618.4,367.7,619.4,368.8,620.8,368.8z M549.2,513.2c-1.3,0-2.4,1.1-2.4,2.4s1.1,2.4,2.4,2.4
			c1.3,0,2.4-1.1,2.4-2.4S550.5,513.2,549.2,513.2z M620.8,394.7c1.3,0,2.4-1.1,2.4-2.4c0-1.3-1.1-2.4-2.4-2.4
			c-1.3,0-2.4,1.1-2.4,2.4C618.4,393.6,619.4,394.7,620.8,394.7z M575.1,498.4c-1.3,0-2.4,1.1-2.4,2.4c0,1.3,1.1,2.4,2.4,2.4
			c1.3,0,2.4-1.1,2.4-2.4C577.5,499.5,576.4,498.4,575.1,498.4z M523.2,525.6c-1.3,0-2.4,1.1-2.4,2.4c0,1.3,1.1,2.4,2.4,2.4
			c1.3,0,2.4-1.1,2.4-2.4C525.6,526.7,524.5,525.6,523.2,525.6z M566.4,588.5c-1.3,0-2.4,1.1-2.4,2.4c0,1.3,1.1,2.4,2.4,2.4
			c1.3,0,2.4-1.1,2.4-2.4C568.9,589.6,567.8,588.5,566.4,588.5z M620.8,524.3c1.3,0,2.4-1.1,2.4-2.4c0-1.3-1.1-2.4-2.4-2.4
			c-1.3,0-2.4,1.1-2.4,2.4C618.4,523.2,619.4,524.3,620.8,524.3z M780.8,622.1c-1.3,0-2.4,1.1-2.4,2.4c0,1.3,1.1,2.4,2.4,2.4
			c1.3,0,2.4-1.1,2.4-2.4C783.2,623.1,782.1,622.1,780.8,622.1z M620.8,550.2c1.3,0,2.4-1.1,2.4-2.4c0-1.3-1.1-2.4-2.4-2.4
			c-1.3,0-2.4,1.1-2.4,2.4C618.4,549.1,619.4,550.2,620.8,550.2z M623.2,556.4c0-1.3-1.1-2.4-2.4-2.4c-1.3,0-2.4,1.1-2.4,2.4
			c0,1.3,1.1,2.4,2.4,2.4C622.1,558.8,623.2,557.7,623.2,556.4z M612.1,152.9c1.3,0,2.4-1.1,2.4-2.4c0-1.3-1.1-2.4-2.4-2.4
			c-1.3,0-2.4,1.1-2.4,2.4C609.7,151.8,610.8,152.9,612.1,152.9z M612.1,161.5c1.3,0,2.4-1.1,2.4-2.4c0-1.3-1.1-2.4-2.4-2.4
			c-1.3,0-2.4,1.1-2.4,2.4C609.7,160.4,610.8,161.5,612.1,161.5z M614.6,182.5c-1.3,0-2.4,1.1-2.4,2.4c0,1.3,1.1,2.4,2.4,2.4
			c1.3,0,2.4-1.1,2.4-2.4C617,183.6,615.9,182.5,614.6,182.5z M612.1,247.9c1.3,0,2.4-1.1,2.4-2.4c0-1.3-1.1-2.4-2.4-2.4
			c-1.3,0-2.4,1.1-2.4,2.4C609.7,246.8,610.8,247.9,612.1,247.9z M612.1,334.3c1.3,0,2.4-1.1,2.4-2.4c0-1.3-1.1-2.4-2.4-2.4
			c-1.3,0-2.4,1.1-2.4,2.4C609.7,333.2,610.8,334.3,612.1,334.3z M612.1,342.9c1.3,0,2.4-1.1,2.4-2.4c0-1.3-1.1-2.4-2.4-2.4
			c-1.3,0-2.4,1.1-2.4,2.4C609.7,341.8,610.8,342.9,612.1,342.9z M612.1,377.4c1.3,0,2.4-1.1,2.4-2.4c0-1.3-1.1-2.4-2.4-2.4
			c-1.3,0-2.4,1.1-2.4,2.4C609.7,376.3,610.8,377.4,612.1,377.4z M614.6,392.3c0-1.3-1.1-2.4-2.4-2.4c-1.3,0-2.4,1.1-2.4,2.4
			c0,1.3,1.1,2.4,2.4,2.4C613.5,394.7,614.6,393.6,614.6,392.3z M450.2,389.8c0-1.3-1.1-2.4-2.4-2.4c-1.3,0-2.4,1.1-2.4,2.4
			c0,1.3,1.1,2.4,2.4,2.4C449.1,392.3,450.2,391.2,450.2,389.8z M475.1,369c-1.3,0-2.4,1.1-2.4,2.4c0,1.3,1.1,2.4,2.4,2.4
			c1.3,0,2.4-1.1,2.4-2.4C477.6,370.1,476.5,369,475.1,369z M597.3,592.3c-1.3,0-2.4,1.1-2.4,2.4c0,1.3,1.1,2.4,2.4,2.4
			c1.3,0,2.4-1.1,2.4-2.4C599.7,593.4,598.6,592.3,597.3,592.3z M510.6,564.1c0-1.3-1.1-2.4-2.4-2.4c-1.3,0-2.4,1.1-2.4,2.4
			c0,1.3,1.1,2.4,2.4,2.4C509.5,566.6,510.6,565.5,510.6,564.1z M702.1,565.3c-1.3,0-2.4,1.1-2.4,2.4c0,1.3,1.1,2.4,2.4,2.4
			c1.3,0,2.4-1.1,2.4-2.4C704.6,566.4,703.5,565.3,702.1,565.3z M536.7,602.3c-1.3,0-2.4,1.1-2.4,2.4c0,1.3,1.1,2.4,2.4,2.4
			c1.3,0,2.4-1.1,2.4-2.4C539.2,603.3,538.1,602.3,536.7,602.3z M603.5,148c-1.3,0-2.4,1.1-2.4,2.4c0,1.3,1.1,2.4,2.4,2.4
			c1.3,0,2.4-1.1,2.4-2.4C605.9,149.1,604.8,148,603.5,148z M603.5,156.6c-1.3,0-2.4,1.1-2.4,2.4c0,1.3,1.1,2.4,2.4,2.4
			c1.3,0,2.4-1.1,2.4-2.4C605.9,157.7,604.8,156.6,603.5,156.6z M603.5,165.3c-1.3,0-2.4,1.1-2.4,2.4c0,1.3,1.1,2.4,2.4,2.4
			c1.3,0,2.4-1.1,2.4-2.4C605.9,166.3,604.8,165.3,603.5,165.3z M594.8,189.8c1.3,0,2.4-1.1,2.4-2.4c0-1.3-1.1-2.4-2.4-2.4
			c-1.3,0-2.4,1.1-2.4,2.4C592.4,188.7,593.5,189.8,594.8,189.8z M603.5,217.1c-1.3,0-2.4,1.1-2.4,2.4c0,1.3,1.1,2.4,2.4,2.4
			c1.3,0,2.4-1.1,2.4-2.4C605.9,218.2,604.8,217.1,603.5,217.1z M603.5,225.7c-1.3,0-2.4,1.1-2.4,2.4c0,1.3,1.1,2.4,2.4,2.4
			c1.3,0,2.4-1.1,2.4-2.4C605.9,226.8,604.8,225.7,603.5,225.7z M603.5,251.6c-1.3,0-2.4,1.1-2.4,2.4c0,1.3,1.1,2.4,2.4,2.4
			c1.3,0,2.4-1.1,2.4-2.4C605.9,252.7,604.8,251.6,603.5,251.6z M603.5,303.5c-1.3,0-2.4,1.1-2.4,2.4c0,1.3,1.1,2.4,2.4,2.4
			c1.3,0,2.4-1.1,2.4-2.4C605.9,304.6,604.8,303.5,603.5,303.5z M603.5,320.7c-1.3,0-2.4,1.1-2.4,2.4c0,1.3,1.1,2.4,2.4,2.4
			c1.3,0,2.4-1.1,2.4-2.4C605.9,321.8,604.8,320.7,603.5,320.7z M603.5,363.9c-1.3,0-2.4,1.1-2.4,2.4c0,1.3,1.1,2.4,2.4,2.4
			c1.3,0,2.4-1.1,2.4-2.4C605.9,365,604.8,363.9,603.5,363.9z M603.5,372.6c-1.3,0-2.4,1.1-2.4,2.4c0,1.3,1.1,2.4,2.4,2.4
			c1.3,0,2.4-1.1,2.4-2.4C605.9,373.7,604.8,372.6,603.5,372.6z M624.6,619.8c-1.3,0-2.4,1.1-2.4,2.4c0,1.3,1.1,2.4,2.4,2.4
			c1.3,0,2.4-1.1,2.4-2.4C627,620.9,625.9,619.8,624.6,619.8z M511.5,702.1c-1.3,0-2.4,1.1-2.4,2.4c0,1.3,1.1,2.4,2.4,2.4
			c1.3,0,2.4-1.1,2.4-2.4C513.9,703.2,512.8,702.1,511.5,702.1z M560.5,534.4c-1.3,0-2.4,1.1-2.4,2.4c0,1.3,1.1,2.4,2.4,2.4
			c1.3,0,2.4-1.1,2.4-2.4C562.9,535.5,561.8,534.4,560.5,534.4z M603.5,528.1c-1.3,0-2.4,1.1-2.4,2.4c0,1.3,1.1,2.4,2.4,2.4
			c1.3,0,2.4-1.1,2.4-2.4C605.9,529.1,604.8,528.1,603.5,528.1z M603.5,554c-1.3,0-2.4,1.1-2.4,2.4c0,1.3,1.1,2.4,2.4,2.4
			c1.3,0,2.4-1.1,2.4-2.4C605.9,555.1,604.8,554,603.5,554z M594.8,161.5c1.3,0,2.4-1.1,2.4-2.4c0-1.3-1.1-2.4-2.4-2.4
			c-1.3,0-2.4,1.1-2.4,2.4C592.4,160.4,593.5,161.5,594.8,161.5z M594.8,170.1c1.3,0,2.4-1.1,2.4-2.4c0-1.3-1.1-2.4-2.4-2.4
			c-1.3,0-2.4,1.1-2.4,2.4C592.4,169,593.5,170.1,594.8,170.1z M577.5,208.4c-1.3,0-2.4,1.1-2.4,2.4c0,1.3,1.1,2.4,2.4,2.4
			c1.3,0,2.4-1.1,2.4-2.4C580,209.5,578.9,208.4,577.5,208.4z M594.8,218.2c1.3,0,2.4-1.1,2.4-2.4c0-1.3-1.1-2.4-2.4-2.4
			c-1.3,0-2.4,1.1-2.4,2.4C592.4,217.1,593.5,218.2,594.8,218.2z M586.2,228.2c0-1.3-1.1-2.4-2.4-2.4c-1.3,0-2.4,1.1-2.4,2.4
			c0,1.3,1.1,2.4,2.4,2.4C585.1,230.6,586.2,229.5,586.2,228.2z M594.8,256.5c1.3,0,2.4-1.1,2.4-2.4c0-1.3-1.1-2.4-2.4-2.4
			c-1.3,0-2.4,1.1-2.4,2.4C592.4,255.4,593.5,256.5,594.8,256.5z M594.8,265.1c1.3,0,2.4-1.1,2.4-2.4c0-1.3-1.1-2.4-2.4-2.4
			c-1.3,0-2.4,1.1-2.4,2.4C592.4,264.1,593.5,265.1,594.8,265.1z M594.8,282.4c1.3,0,2.4-1.1,2.4-2.4c0-1.3-1.1-2.4-2.4-2.4
			c-1.3,0-2.4,1.1-2.4,2.4C592.4,281.3,593.5,282.4,594.8,282.4z M594.8,291.1c1.3,0,2.4-1.1,2.4-2.4c0-1.3-1.1-2.4-2.4-2.4
			c-1.3,0-2.4,1.1-2.4,2.4C592.4,290,593.5,291.1,594.8,291.1z M594.8,368.8c1.3,0,2.4-1.1,2.4-2.4c0-1.3-1.1-2.4-2.4-2.4
			c-1.3,0-2.4,1.1-2.4,2.4C592.4,367.7,593.5,368.8,594.8,368.8z M822.2,609.6c0-1.3-1.1-2.4-2.4-2.4c-1.3,0-2.4,1.1-2.4,2.4
			c0,1.3,1.1,2.4,2.4,2.4C821.1,612,822.2,610.9,822.2,609.6z M547.8,481.1c0-1.3-1.1-2.4-2.4-2.4c-1.3,0-2.4,1.1-2.4,2.4
			c0,1.3,1.1,2.4,2.4,2.4C546.7,483.5,547.8,482.4,547.8,481.1z M594.8,455.2c1.3,0,2.4-1.1,2.4-2.4c0-1.3-1.1-2.4-2.4-2.4
			c-1.3,0-2.4,1.1-2.4,2.4C592.4,454.1,593.5,455.2,594.8,455.2z M594.8,472.5c1.3,0,2.4-1.1,2.4-2.4c0-1.3-1.1-2.4-2.4-2.4
			c-1.3,0-2.4,1.1-2.4,2.4C592.4,471.4,593.5,472.5,594.8,472.5z M594.8,489.7c1.3,0,2.4-1.1,2.4-2.4c0-1.3-1.1-2.4-2.4-2.4
			c-1.3,0-2.4,1.1-2.4,2.4C592.4,488.6,593.5,489.7,594.8,489.7z M594.8,498.4c1.3,0,2.4-1.1,2.4-2.4c0-1.3-1.1-2.4-2.4-2.4
			c-1.3,0-2.4,1.1-2.4,2.4C592.4,497.3,593.5,498.4,594.8,498.4z M666.8,684.8c-1.3,0-2.4,1.1-2.4,2.4c0,1.3,1.1,2.4,2.4,2.4
			c1.3,0,2.4-1.1,2.4-2.4C669.3,685.9,668.2,684.8,666.8,684.8z M594.8,524.3c1.3,0,2.4-1.1,2.4-2.4c0-1.3-1.1-2.4-2.4-2.4
			c-1.3,0-2.4,1.1-2.4,2.4C592.4,523.2,593.5,524.3,594.8,524.3z M597.3,530.5c0-1.3-1.1-2.4-2.4-2.4c-1.3,0-2.4,1.1-2.4,2.4
			c0,1.3,1.1,2.4,2.4,2.4C596.2,532.9,597.3,531.8,597.3,530.5z M586.2,156.6c-1.3,0-2.4,1.1-2.4,2.4c0,1.3,1.1,2.4,2.4,2.4
			c1.3,0,2.4-1.1,2.4-2.4C588.6,157.7,587.5,156.6,586.2,156.6z M551.6,215.8c1.3,0,2.4-1.1,2.4-2.4c0-1.3-1.1-2.4-2.4-2.4
			c-1.3,0-2.4,1.1-2.4,2.4C549.2,214.7,550.2,215.8,551.6,215.8z M568.9,228.2c-1.3,0-2.4,1.1-2.4,2.4c0,1.3,1.1,2.4,2.4,2.4
			c1.3,0,2.4-1.1,2.4-2.4C571.3,229.2,570.2,228.2,568.9,228.2z M586.2,243c-1.3,0-2.4,1.1-2.4,2.4c0,1.3,1.1,2.4,2.4,2.4
			c1.3,0,2.4-1.1,2.4-2.4C588.6,244.1,587.5,243,586.2,243z M564,191.2c0-1.3-1.1-2.4-2.4-2.4c-1.3,0-2.4,1.1-2.4,2.4
			c0,1.3,1.1,2.4,2.4,2.4C562.9,193.6,564,192.5,564,191.2z M561.6,165.3c0-1.3-1.1-2.4-2.4-2.4c-1.3,0-2.4,1.1-2.4,2.4
			c0,1.3,1.1,2.4,2.4,2.4C560.5,167.7,561.6,166.6,561.6,165.3z M586.2,372.6c-1.3,0-2.4,1.1-2.4,2.4c0,1.3,1.1,2.4,2.4,2.4
			c1.3,0,2.4-1.1,2.4-2.4C588.6,373.7,587.5,372.6,586.2,372.6z M523.2,483.5c0-1.3-1.1-2.4-2.4-2.4c-1.3,0-2.4,1.1-2.4,2.4
			c0,1.3,1.1,2.4,2.4,2.4C522.1,486,523.2,484.9,523.2,483.5z M586.2,433c-1.3,0-2.4,1.1-2.4,2.4c0,1.3,1.1,2.4,2.4,2.4
			c1.3,0,2.4-1.1,2.4-2.4C588.6,434.1,587.5,433,586.2,433z M586.2,441.7c-1.3,0-2.4,1.1-2.4,2.4c0,1.3,1.1,2.4,2.4,2.4
			c1.3,0,2.4-1.1,2.4-2.4C588.6,442.8,587.5,441.7,586.2,441.7z M560.2,486c1.3,0,2.4-1.1,2.4-2.4c0-1.3-1.1-2.4-2.4-2.4
			c-1.3,0-2.4,1.1-2.4,2.4C557.8,484.9,558.9,486,560.2,486z M586.2,467.6c-1.3,0-2.4,1.1-2.4,2.4c0,1.3,1.1,2.4,2.4,2.4
			c1.3,0,2.4-1.1,2.4-2.4C588.6,468.7,587.5,467.6,586.2,467.6z M586.2,493.5c-1.3,0-2.4,1.1-2.4,2.4c0,1.3,1.1,2.4,2.4,2.4
			c1.3,0,2.4-1.1,2.4-2.4C588.6,494.6,587.5,493.5,586.2,493.5z M588.6,504.6c0-1.3-1.1-2.4-2.4-2.4c-1.3,0-2.4,1.1-2.4,2.4
			c0,1.3,1.1,2.4,2.4,2.4C587.5,507,588.6,505.9,588.6,504.6z M554,219.5c-1.3,0-2.4,1.1-2.4,2.4c0,1.3,1.1,2.4,2.4,2.4
			c1.3,0,2.4-1.1,2.4-2.4C556.5,220.6,555.4,219.5,554,219.5z M565.1,236.8c0-1.3-1.1-2.4-2.4-2.4c-1.3,0-2.4,1.1-2.4,2.4
			c0,1.3,1.1,2.4,2.4,2.4C564,239.2,565.1,238.1,565.1,236.8z M577.5,251.6c-1.3,0-2.4,1.1-2.4,2.4c0,1.3,1.1,2.4,2.4,2.4
			c1.3,0,2.4-1.1,2.4-2.4C580,252.7,578.9,251.6,577.5,251.6z M577.5,260.3c-1.3,0-2.4,1.1-2.4,2.4c0,1.3,1.1,2.4,2.4,2.4
			c1.3,0,2.4-1.1,2.4-2.4C580,261.4,578.9,260.3,577.5,260.3z M577.5,268.9c-1.3,0-2.4,1.1-2.4,2.4c0,1.3,1.1,2.4,2.4,2.4
			c1.3,0,2.4-1.1,2.4-2.4C580,270,578.9,268.9,577.5,268.9z M577.5,286.2c-1.3,0-2.4,1.1-2.4,2.4c0,1.3,1.1,2.4,2.4,2.4
			c1.3,0,2.4-1.1,2.4-2.4C580,287.3,578.9,286.2,577.5,286.2z M577.5,355.3c-1.3,0-2.4,1.1-2.4,2.4c0,1.3,1.1,2.4,2.4,2.4
			c1.3,0,2.4-1.1,2.4-2.4C580,356.4,578.9,355.3,577.5,355.3z M577.5,372.6c-1.3,0-2.4,1.1-2.4,2.4c0,1.3,1.1,2.4,2.4,2.4
			c1.3,0,2.4-1.1,2.4-2.4C580,373.7,578.9,372.6,577.5,372.6z M577.5,441.7c-1.3,0-2.4,1.1-2.4,2.4c0,1.3,1.1,2.4,2.4,2.4
			c1.3,0,2.4-1.1,2.4-2.4C580,442.8,578.9,441.7,577.5,441.7z M577.5,458.9c-1.3,0-2.4,1.1-2.4,2.4c0,1.3,1.1,2.4,2.4,2.4
			c1.3,0,2.4-1.1,2.4-2.4C580,460,578.9,458.9,577.5,458.9z M568.9,217.1c-1.3,0-2.4,1.1-2.4,2.4c0,1.3,1.1,2.4,2.4,2.4
			c1.3,0,2.4-1.1,2.4-2.4C571.3,218.2,570.2,217.1,568.9,217.1z M568.9,260.3c-1.3,0-2.4,1.1-2.4,2.4c0,1.3,1.1,2.4,2.4,2.4
			c1.3,0,2.4-1.1,2.4-2.4C571.3,261.4,570.2,260.3,568.9,260.3z M568.9,346.7c-1.3,0-2.4,1.1-2.4,2.4c0,1.3,1.1,2.4,2.4,2.4
			c1.3,0,2.4-1.1,2.4-2.4C571.3,347.7,570.2,346.7,568.9,346.7z M568.9,355.3c-1.3,0-2.4,1.1-2.4,2.4c0,1.3,1.1,2.4,2.4,2.4
			c1.3,0,2.4-1.1,2.4-2.4C571.3,356.4,570.2,355.3,568.9,355.3z M568.9,372.6c-1.3,0-2.4,1.1-2.4,2.4c0,1.3,1.1,2.4,2.4,2.4
			c1.3,0,2.4-1.1,2.4-2.4C571.3,373.7,570.2,372.6,568.9,372.6z M568.9,381.2c-1.3,0-2.4,1.1-2.4,2.4c0,1.3,1.1,2.4,2.4,2.4
			c1.3,0,2.4-1.1,2.4-2.4C571.3,382.3,570.2,381.2,568.9,381.2z M508.3,450.3c-1.3,0-2.4,1.1-2.4,2.4c0,1.3,1.1,2.4,2.4,2.4
			c1.3,0,2.4-1.1,2.4-2.4C510.8,451.4,509.7,450.3,508.3,450.3z M568.9,433c-1.3,0-2.4,1.1-2.4,2.4c0,1.3,1.1,2.4,2.4,2.4
			c1.3,0,2.4-1.1,2.4-2.4C571.3,434.1,570.2,433,568.9,433z M560.2,363.9c-1.3,0-2.4,1.1-2.4,2.4c0,1.3,1.1,2.4,2.4,2.4
			c1.3,0,2.4-1.1,2.4-2.4C562.7,365,561.6,363.9,560.2,363.9z M560.2,433c-1.3,0-2.4,1.1-2.4,2.4c0,1.3,1.1,2.4,2.4,2.4
			c1.3,0,2.4-1.1,2.4-2.4C562.7,434.1,561.6,433,560.2,433z M534.3,308.3c1.3,0,2.4-1.1,2.4-2.4c0-1.3-1.1-2.4-2.4-2.4
			c-1.3,0-2.4,1.1-2.4,2.4C531.9,307.2,532.9,308.3,534.3,308.3z M551.6,346.7c-1.3,0-2.4,1.1-2.4,2.4c0,1.3,1.1,2.4,2.4,2.4
			c1.3,0,2.4-1.1,2.4-2.4C554,347.7,552.9,346.7,551.6,346.7z M470,362.6c1.3,0,2.4-1.1,2.4-2.4c0-1.3-1.1-2.4-2.4-2.4
			c-1.3,0-2.4,1.1-2.4,2.4C467.5,361.5,468.6,362.6,470,362.6z M551.6,372.6c-1.3,0-2.4,1.1-2.4,2.4c0,1.3,1.1,2.4,2.4,2.4
			c1.3,0,2.4-1.1,2.4-2.4C554,373.7,552.9,372.6,551.6,372.6z M551.6,381.2c-1.3,0-2.4,1.1-2.4,2.4c0,1.3,1.1,2.4,2.4,2.4
			c1.3,0,2.4-1.1,2.4-2.4C554,382.3,552.9,381.2,551.6,381.2z M551.6,424.4c-1.3,0-2.4,1.1-2.4,2.4c0,1.3,1.1,2.4,2.4,2.4
			c1.3,0,2.4-1.1,2.4-2.4C554,425.5,552.9,424.4,551.6,424.4z M545.4,455.2c0-1.3-1.1-2.4-2.4-2.4c-1.3,0-2.4,1.1-2.4,2.4
			c0,1.3,1.1,2.4,2.4,2.4C544.3,457.6,545.4,456.5,545.4,455.2z M542.9,351.5c1.3,0,2.4-1.1,2.4-2.4c0-1.3-1.1-2.4-2.4-2.4
			c-1.3,0-2.4,1.1-2.4,2.4C540.5,350.4,541.6,351.5,542.9,351.5z M542.9,368.8c1.3,0,2.4-1.1,2.4-2.4c0-1.3-1.1-2.4-2.4-2.4
			c-1.3,0-2.4,1.1-2.4,2.4C540.5,367.7,541.6,368.8,542.9,368.8z M542.9,437.9c1.3,0,2.4-1.1,2.4-2.4c0-1.3-1.1-2.4-2.4-2.4
			c-1.3,0-2.4,1.1-2.4,2.4C540.5,436.8,541.6,437.9,542.9,437.9z M534.3,334.3c1.3,0,2.4-1.1,2.4-2.4c0-1.3-1.1-2.4-2.4-2.4
			c-1.3,0-2.4,1.1-2.4,2.4C531.8,333.2,532.9,334.3,534.3,334.3z M476.2,335.6c-1.3,0-2.4,1.1-2.4,2.4c0,1.3,1.1,2.4,2.4,2.4
			c1.3,0,2.4-1.1,2.4-2.4C478.6,336.7,477.5,335.6,476.2,335.6z M534.3,351.5c1.3,0,2.4-1.1,2.4-2.4c0-1.3-1.1-2.4-2.4-2.4
			c-1.3,0-2.4,1.1-2.4,2.4C531.8,350.4,532.9,351.5,534.3,351.5z M458.9,461.4c0,1.3,1.1,2.4,2.4,2.4c1.3,0,2.4-1.1,2.4-2.4
			c0-1.3-1.1-2.4-2.4-2.4C460,458.9,458.9,460,458.9,461.4z M536.7,444.1c0-1.3-1.1-2.4-2.4-2.4c-1.3,0-2.4,1.1-2.4,2.4
			c0,1.3,1.1,2.4,2.4,2.4C535.6,446.5,536.7,445.5,536.7,444.1z M497.2,297.3c-1.3,0-2.4,1.1-2.4,2.4c0,1.3,1.1,2.4,2.4,2.4
			c1.3,0,2.4-1.1,2.4-2.4C499.7,298.4,498.6,297.3,497.2,297.3z M505.9,340.5c1.3,0,2.4-1.1,2.4-2.4c0-1.3-1.1-2.4-2.4-2.4
			c-1.3,0-2.4,1.1-2.4,2.4C503.5,339.4,504.6,340.5,505.9,340.5z M525.6,338c-1.3,0-2.4,1.1-2.4,2.4c0,1.3,1.1,2.4,2.4,2.4
			c1.3,0,2.4-1.1,2.4-2.4C528.1,339.1,527,338,525.6,338z M525.6,355.3c-1.3,0-2.4,1.1-2.4,2.4c0,1.3,1.1,2.4,2.4,2.4
			c1.3,0,2.4-1.1,2.4-2.4C528.1,356.4,527,355.3,525.6,355.3z M517,144.2c1.3,0,2.4-1.1,2.4-2.4c0-1.3-1.1-2.4-2.4-2.4
			c-1.3,0-2.4,1.1-2.4,2.4C514.5,143.1,515.6,144.2,517,144.2z M502.1,361.5c-1.3,0-2.4,1.1-2.4,2.4c0,1.3,1.1,2.4,2.4,2.4
			c1.3,0,2.4-1.1,2.4-2.4C504.6,362.6,503.5,361.5,502.1,361.5z M519.4,435.5c0-1.3-1.1-2.4-2.4-2.4c-1.3,0-2.4,1.1-2.4,2.4
			c0,1.3,1.1,2.4,2.4,2.4C518.3,437.9,519.4,436.8,519.4,435.5z M578.3,62.3c-1.3,0-2.4,1.1-2.4,2.4c0,1.3,1.1,2.4,2.4,2.4
			c1.3,0,2.4-1.1,2.4-2.4C580.8,63.4,579.7,62.3,578.3,62.3z M499.7,152.9c1.3,0,2.4-1.1,2.4-2.4c0-1.3-1.1-2.4-2.4-2.4
			c-1.3,0-2.4,1.1-2.4,2.4C497.2,151.8,498.3,152.9,499.7,152.9z M491,139.3c-1.3,0-2.4,1.1-2.4,2.4c0,1.3,1.1,2.4,2.4,2.4
			c1.3,0,2.4-1.1,2.4-2.4C493.5,140.4,492.4,139.3,491,139.3z M491,148c-1.3,0-2.4,1.1-2.4,2.4c0,1.3,1.1,2.4,2.4,2.4
			c1.3,0,2.4-1.1,2.4-2.4C493.5,149.1,492.4,148,491,148z M505.9,204.7c1.3,0,2.4-1.1,2.4-2.4c0-1.3-1.1-2.4-2.4-2.4
			c-1.3,0-2.4,1.1-2.4,2.4C503.5,203.6,504.5,204.7,505.9,204.7z M482.4,152.9c1.3,0,2.4-1.1,2.4-2.4c0-1.3-1.1-2.4-2.4-2.4
			c-1.3,0-2.4,1.1-2.4,2.4C479.9,151.8,481,152.9,482.4,152.9z M523.2,159.1c1.3,0,2.4-1.1,2.4-2.4c0-1.3-1.1-2.4-2.4-2.4
			c-1.3,0-2.4,1.1-2.4,2.4C520.8,158,521.9,159.1,523.2,159.1z M508.3,124.5c1.3,0,2.4-1.1,2.4-2.4s-1.1-2.4-2.4-2.4
			c-1.3,0-2.4,1.1-2.4,2.4S507,124.5,508.3,124.5z M473.7,144.2c1.3,0,2.4-1.1,2.4-2.4c0-1.3-1.1-2.4-2.4-2.4
			c-1.3,0-2.4,1.1-2.4,2.4C471.3,143.1,472.4,144.2,473.7,144.2z M517,191.2c-1.3,0-2.4,1.1-2.4,2.4c0,1.3,1.1,2.4,2.4,2.4
			c1.3,0,2.4-1.1,2.4-2.4C519.4,192.3,518.3,191.2,517,191.2z M465.1,144.2c1.3,0,2.4-1.1,2.4-2.4c0-1.3-1.1-2.4-2.4-2.4
			c-1.3,0-2.4,1.1-2.4,2.4C462.6,143.1,463.7,144.2,465.1,144.2z M465.1,152.9c1.3,0,2.4-1.1,2.4-2.4c0-1.3-1.1-2.4-2.4-2.4
			c-1.3,0-2.4,1.1-2.4,2.4C462.6,151.8,463.7,152.9,465.1,152.9z M517,170.1c1.3,0,2.4-1.1,2.4-2.4c0-1.3-1.1-2.4-2.4-2.4
			c-1.3,0-2.4,1.1-2.4,2.4C514.5,169,515.6,170.1,517,170.1z M473.7,219.5c0,1.3,1.1,2.4,2.4,2.4c1.3,0,2.4-1.1,2.4-2.4
			c0-1.3-1.1-2.4-2.4-2.4C474.8,217.1,473.7,218.2,473.7,219.5z M465.1,222c1.3,0,2.4-1.1,2.4-2.4c0-1.3-1.1-2.4-2.4-2.4
			c-1.3,0-2.4,1.1-2.4,2.4C462.6,220.9,463.7,222,465.1,222z M456.4,161.5c1.3,0,2.4-1.1,2.4-2.4c0-1.3-1.1-2.4-2.4-2.4
			c-1.3,0-2.4,1.1-2.4,2.4C454,160.4,455.1,161.5,456.4,161.5z M456.4,170.1c1.3,0,2.4-1.1,2.4-2.4c0-1.3-1.1-2.4-2.4-2.4
			c-1.3,0-2.4,1.1-2.4,2.4C454,169,455.1,170.1,456.4,170.1z M456.4,222c1.3,0,2.4-1.1,2.4-2.4c0-1.3-1.1-2.4-2.4-2.4
			c-1.3,0-2.4,1.1-2.4,2.4C454,220.9,455.1,222,456.4,222z M447.8,148c-1.3,0-2.4,1.1-2.4,2.4c0,1.3,1.1,2.4,2.4,2.4
			c1.3,0,2.4-1.1,2.4-2.4C450.2,149.1,449.1,148,447.8,148z M447.8,156.6c-1.3,0-2.4,1.1-2.4,2.4c0,1.3,1.1,2.4,2.4,2.4
			c1.3,0,2.4-1.1,2.4-2.4C450.2,157.7,449.1,156.6,447.8,156.6z M447.8,182.5c-1.3,0-2.4,1.1-2.4,2.4c0,1.3,1.1,2.4,2.4,2.4
			c1.3,0,2.4-1.1,2.4-2.4C450.2,183.6,449.1,182.5,447.8,182.5z M447.8,199.8c-1.3,0-2.4,1.1-2.4,2.4c0,1.3,1.1,2.4,2.4,2.4
			c1.3,0,2.4-1.1,2.4-2.4C450.2,200.9,449.1,199.8,447.8,199.8z M447.8,208.4c-1.3,0-2.4,1.1-2.4,2.4c0,1.3,1.1,2.4,2.4,2.4
			c1.3,0,2.4-1.1,2.4-2.4C450.2,209.5,449.1,208.4,447.8,208.4z M447.8,225.7c-1.3,0-2.4,1.1-2.4,2.4c0,1.3,1.1,2.4,2.4,2.4
			c1.3,0,2.4-1.1,2.4-2.4C450.2,226.8,449.1,225.7,447.8,225.7z M465.1,470c0,1.3,1.1,2.4,2.4,2.4c1.3,0,2.4-1.1,2.4-2.4
			c0-1.3-1.1-2.4-2.4-2.4C466.2,467.6,465.1,468.7,465.1,470z M447.8,476.2c-1.3,0-2.4,1.1-2.4,2.4c0,1.3,1.1,2.4,2.4,2.4
			c1.3,0,2.4-1.1,2.4-2.4C450.2,477.3,449.1,476.2,447.8,476.2z M439.1,191.2c-1.3,0-2.4,1.1-2.4,2.4c0,1.3,1.1,2.4,2.4,2.4
			c1.3,0,2.4-1.1,2.4-2.4C441.6,192.3,440.5,191.2,439.1,191.2z M456.4,245.4c0,1.3,1.1,2.4,2.4,2.4c1.3,0,2.4-1.1,2.4-2.4
			c0-1.3-1.1-2.4-2.4-2.4C457.5,243,456.4,244.1,456.4,245.4z M439.1,217.1c-1.3,0-2.4,1.1-2.4,2.4c0,1.3,1.1,2.4,2.4,2.4
			c1.3,0,2.4-1.1,2.4-2.4C441.6,218.2,440.5,217.1,439.1,217.1z M458.9,280c0-1.3-1.1-2.4-2.4-2.4c-1.3,0-2.4,1.1-2.4,2.4
			c0,1.3,1.1,2.4,2.4,2.4C457.8,282.4,458.9,281.3,458.9,280z M470,515.7c0-1.3-1.1-2.4-2.4-2.4c-1.3,0-2.4,1.1-2.4,2.4
			c0,1.3,1.1,2.4,2.4,2.4C468.9,518.1,470,517,470,515.7z M495.9,56.4c0-1.3-1.1-2.4-2.4-2.4c-1.3,0-2.4,1.1-2.4,2.4
			c0,1.3,1.1,2.4,2.4,2.4C494.8,58.9,495.9,57.8,495.9,56.4z M439.1,261.6c-1.3,0-2.4,1.1-2.4,2.4c0,1.3,1.1,2.4,2.4,2.4
			c1.3,0,2.4-1.1,2.4-2.4C441.6,262.7,440.5,261.6,439.1,261.6z M447.8,422c-1.3,0-2.4,1.1-2.4,2.4c0,1.3,1.1,2.4,2.4,2.4
			c1.3,0,2.4-1.1,2.4-2.4C450.2,423.1,449.1,422,447.8,422z M473.7,495.9c1.3,0,2.4-1.1,2.4-2.4c0-1.3-1.1-2.4-2.4-2.4
			c-1.3,0-2.4,1.1-2.4,2.4C471.3,494.8,472.4,495.9,473.7,495.9z M431.8,283.8c0,1.3,1.1,2.4,2.4,2.4c1.3,0,2.4-1.1,2.4-2.4
			c0-1.3-1.1-2.4-2.4-2.4C432.9,281.3,431.8,282.4,431.8,283.8z M463.7,525.6c-1.3,0-2.4,1.1-2.4,2.4c0,1.3,1.1,2.4,2.4,2.4
			c1.3,0,2.4-1.1,2.4-2.4C466.2,526.7,465.1,525.6,463.7,525.6z M398.3,245.4c-1.3,0-2.4,1.1-2.4,2.4c0,1.3,1.1,2.4,2.4,2.4
			c1.3,0,2.4-1.1,2.4-2.4C400.8,246.5,399.7,245.4,398.3,245.4z M458.9,547.8c-1.3,0-2.4,1.1-2.4,2.4c0,1.3,1.1,2.4,2.4,2.4
			c1.3,0,2.4-1.1,2.4-2.4C461.3,548.8,460.2,547.8,458.9,547.8z M434.2,558.8c0-1.3-1.1-2.4-2.4-2.4c-1.3,0-2.4,1.1-2.4,2.4
			c0,1.3,1.1,2.4,2.4,2.4C433.2,561.3,434.2,560.2,434.2,558.8z M430.5,530.5c0-1.3-1.1-2.4-2.4-2.4c-1.3,0-2.4,1.1-2.4,2.4
			c0,1.3,1.1,2.4,2.4,2.4C429.4,532.9,430.5,531.8,430.5,530.5z M431.5,65.8c1.3,0,2.4-1.1,2.4-2.4c0-1.3-1.1-2.4-2.4-2.4
			s-2.4,1.1-2.4,2.4C429.1,64.7,430.2,65.8,431.5,65.8z M402.1,202.2c0,1.3,1.1,2.4,2.4,2.4s2.4-1.1,2.4-2.4c0-1.3-1.1-2.4-2.4-2.4
			S402.1,200.9,402.1,202.2z M404.5,217.1c-1.3,0-2.4,1.1-2.4,2.4c0,1.3,1.1,2.4,2.4,2.4s2.4-1.1,2.4-2.4
			C407,218.2,405.9,217.1,404.5,217.1z M404.5,225.7c-1.3,0-2.4,1.1-2.4,2.4c0,1.3,1.1,2.4,2.4,2.4s2.4-1.1,2.4-2.4
			C407,226.8,405.9,225.7,404.5,225.7z M407,236.8c0-1.3-1.1-2.4-2.4-2.4s-2.4,1.1-2.4,2.4c0,1.3,1.1,2.4,2.4,2.4
			S407,238.1,407,236.8z M317.5,633.4c-1.3,0-2.4,1.1-2.4,2.4c0,1.3,1.1,2.4,2.4,2.4c1.3,0,2.4-1.1,2.4-2.4
			C320,634.5,318.9,633.4,317.5,633.4z M402.1,129.4c1.3,0,2.4-1.1,2.4-2.4c0-1.3-1.1-2.4-2.4-2.4c-1.3,0-2.4,1.1-2.4,2.4
			C399.6,128.3,400.7,129.4,402.1,129.4z M395.9,191.2c-1.3,0-2.4,1.1-2.4,2.4c0,1.3,1.1,2.4,2.4,2.4c1.3,0,2.4-1.1,2.4-2.4
			C398.3,192.3,397.2,191.2,395.9,191.2z M395.9,199.8c-1.3,0-2.4,1.1-2.4,2.4c0,1.3,1.1,2.4,2.4,2.4c1.3,0,2.4-1.1,2.4-2.4
			C398.3,200.9,397.2,199.8,395.9,199.8z M381,210.9c-1.3,0-2.4,1.1-2.4,2.4c0,1.3,1.1,2.4,2.4,2.4c1.3,0,2.4-1.1,2.4-2.4
			C383.4,212,382.4,210.9,381,210.9z M395.9,225.7c-1.3,0-2.4,1.1-2.4,2.4c0,1.3,1.1,2.4,2.4,2.4c1.3,0,2.4-1.1,2.4-2.4
			C398.3,226.8,397.2,225.7,395.9,225.7z M395.9,303.5c-1.3,0-2.4,1.1-2.4,2.4c0,1.3,1.1,2.4,2.4,2.4c1.3,0,2.4-1.1,2.4-2.4
			C398.3,304.6,397.2,303.5,395.9,303.5z M434.3,604.7c-1.3,0-2.4,1.1-2.4,2.4c0,1.3,1.1,2.4,2.4,2.4c1.3,0,2.4-1.1,2.4-2.4
			C436.7,605.8,435.6,604.7,434.3,604.7z M387.2,124.5c0-1.3-1.1-2.4-2.4-2.4c-1.3,0-2.4,1.1-2.4,2.4c0,1.3,1.1,2.4,2.4,2.4
			C386.1,126.9,387.2,125.8,387.2,124.5z M395.9,94.8c-1.3,0-2.4,1.1-2.4,2.4c0,1.3,1.1,2.4,2.4,2.4c1.3,0,2.4-1.1,2.4-2.4
			C398.3,95.9,397.2,94.8,395.9,94.8z M365,193.6c0,1.3,1.1,2.4,2.4,2.4c1.3,0,2.4-1.1,2.4-2.4c0-1.3-1.1-2.4-2.4-2.4
			C366.1,191.2,365,192.3,365,193.6z M387.2,286.2c-1.3,0-2.4,1.1-2.4,2.4c0,1.3,1.1,2.4,2.4,2.4c1.3,0,2.4-1.1,2.4-2.4
			C389.7,287.3,388.6,286.2,387.2,286.2z M387.2,303.5c-1.3,0-2.4,1.1-2.4,2.4c0,1.3,1.1,2.4,2.4,2.4c1.3,0,2.4-1.1,2.4-2.4
			C389.7,304.6,388.6,303.5,387.2,303.5z M473.7,622.2c-1.3,0-2.4,1.1-2.4,2.4c0,1.3,1.1,2.4,2.4,2.4c1.3,0,2.4-1.1,2.4-2.4
			C476.2,623.3,475.1,622.2,473.7,622.2z M473.7,508.3c-1.3,0-2.4,1.1-2.4,2.4c0,1.3,1.1,2.4,2.4,2.4c1.3,0,2.4-1.1,2.4-2.4
			C476.2,509.4,475.1,508.3,473.7,508.3z M407,402.3c-1.3,0-2.4,1.1-2.4,2.4c0,1.3,1.1,2.4,2.4,2.4c1.3,0,2.4-1.1,2.4-2.4
			C409.4,403.3,408.3,402.3,407,402.3z M378.6,528.1c-1.3,0-2.4,1.1-2.4,2.4c0,1.3,1.1,2.4,2.4,2.4c1.3,0,2.4-1.1,2.4-2.4
			C381,529.1,379.9,528.1,378.6,528.1z M473.7,593.4c0-1.3-1.1-2.4-2.4-2.4c-1.3,0-2.4,1.1-2.4,2.4c0,1.3,1.1,2.4,2.4,2.4
			C472.6,595.8,473.7,594.7,473.7,593.4z M378.6,571.2c-1.3,0-2.4,1.1-2.4,2.4c0,1.3,1.1,2.4,2.4,2.4c1.3,0,2.4-1.1,2.4-2.4
			C381,572.3,379.9,571.2,378.6,571.2z M395.9,276.2c0-1.3-1.1-2.4-2.4-2.4c-1.3,0-2.4,1.1-2.4,2.4c0,1.3,1.1,2.4,2.4,2.4
			C394.8,278.7,395.9,277.6,395.9,276.2z M337.8,550.2c0-1.3-1.1-2.4-2.4-2.4c-1.3,0-2.4,1.1-2.4,2.4c0,1.3,1.1,2.4,2.4,2.4
			C336.7,552.6,337.8,551.5,337.8,550.2z M369.9,536.7c-1.3,0-2.4,1.1-2.4,2.4c0,1.3,1.1,2.4,2.4,2.4c1.3,0,2.4-1.1,2.4-2.4
			C372.4,537.8,371.3,536.7,369.9,536.7z M369.9,545.3c-1.3,0-2.4,1.1-2.4,2.4c0,1.3,1.1,2.4,2.4,2.4c1.3,0,2.4-1.1,2.4-2.4
			C372.4,546.4,371.3,545.3,369.9,545.3z M369.9,562.6c-1.3,0-2.4,1.1-2.4,2.4c0,1.3,1.1,2.4,2.4,2.4c1.3,0,2.4-1.1,2.4-2.4
			C372.4,563.7,371.3,562.6,369.9,562.6z M369.9,579.9c-1.3,0-2.4,1.1-2.4,2.4c0,1.3,1.1,2.4,2.4,2.4c1.3,0,2.4-1.1,2.4-2.4
			C372.4,581,371.3,579.9,369.9,579.9z M363.7,124.5c1.3,0,2.4-1.1,2.4-2.4c0-1.3-1.1-2.4-2.4-2.4c-1.3,0-2.4,1.1-2.4,2.4
			C361.3,123.4,362.4,124.5,363.7,124.5z M361.3,403.4c1.3,0,2.4-1.1,2.4-2.4c0-1.3-1.1-2.4-2.4-2.4c-1.3,0-2.4,1.1-2.4,2.4
			C358.8,402.3,359.9,403.4,361.3,403.4z M486.2,447.9c-1.3,0-2.4,1.1-2.4,2.4c0,1.3,1.1,2.4,2.4,2.4c1.3,0,2.4-1.1,2.4-2.4
			C488.6,449,487.5,447.9,486.2,447.9z M254.3,603.7c-1.3,0-2.4,1.1-2.4,2.4s1.1,2.4,2.4,2.4c1.3,0,2.4-1.1,2.4-2.4
			S255.6,603.7,254.3,603.7z M361.3,567.5c1.3,0,2.4-1.1,2.4-2.4c0-1.3-1.1-2.4-2.4-2.4c-1.3,0-2.4,1.1-2.4,2.4
			C358.8,566.4,359.9,567.5,361.3,567.5z M363.7,607.1c-1.3,0-2.4,1.1-2.4,2.4c0,1.3,1.1,2.4,2.4,2.4c1.3,0,2.4-1.1,2.4-2.4
			C366.1,608.2,365.1,607.1,363.7,607.1z M363.7,591c0-1.3-1.1-2.4-2.4-2.4c-1.3,0-2.4,1.1-2.4,2.4s1.1,2.4,2.4,2.4
			C362.6,593.4,363.7,592.3,363.7,591z M344,178.8c1.3,0,2.4-1.1,2.4-2.4c0-1.3-1.1-2.4-2.4-2.4c-1.3,0-2.4,1.1-2.4,2.4
			C341.5,177.7,342.6,178.8,344,178.8z M415.6,283.8c-1.3,0-2.4,1.1-2.4,2.4c0,1.3,1.1,2.4,2.4,2.4c1.3,0,2.4-1.1,2.4-2.4
			C418.1,284.8,417,283.8,415.6,283.8z M372.4,412c-1.3,0-2.4,1.1-2.4,2.4c0,1.3,1.1,2.4,2.4,2.4c1.3,0,2.4-1.1,2.4-2.4
			C374.8,413.1,373.7,412,372.4,412z M300.7,510.8c-1.3,0-2.4,1.1-2.4,2.4c0,1.3,1.1,2.4,2.4,2.4c1.3,0,2.4-1.1,2.4-2.4
			C303.2,511.9,302.1,510.8,300.7,510.8z M352.6,554c-1.3,0-2.4,1.1-2.4,2.4c0,1.3,1.1,2.4,2.4,2.4c1.3,0,2.4-1.1,2.4-2.4
			C355.1,555.1,354,554,352.6,554z M352.6,597.2c-1.3,0-2.4,1.1-2.4,2.4c0,1.3,1.1,2.4,2.4,2.4c1.3,0,2.4-1.1,2.4-2.4
			C355.1,598.3,354,597.2,352.6,597.2z M344,161.5c1.3,0,2.4-1.1,2.4-2.4c0-1.3-1.1-2.4-2.4-2.4c-1.3,0-2.4,1.1-2.4,2.4
			C341.5,160.4,342.6,161.5,344,161.5z M344,170.1c1.3,0,2.4-1.1,2.4-2.4c0-1.3-1.1-2.4-2.4-2.4c-1.3,0-2.4,1.1-2.4,2.4
			C341.5,169,342.6,170.1,344,170.1z M344,204.7c1.3,0,2.4-1.1,2.4-2.4c0-1.3-1.1-2.4-2.4-2.4c-1.3,0-2.4,1.1-2.4,2.4
			C341.5,203.6,342.6,204.7,344,204.7z M367.5,329.4c0,1.3,1.1,2.4,2.4,2.4c1.3,0,2.4-1.1,2.4-2.4c0-1.3-1.1-2.4-2.4-2.4
			C368.6,326.9,367.5,328,367.5,329.4z M344,389.8c-1.3,0-2.4,1.1-2.4,2.4c0,1.3,1.1,2.4,2.4,2.4c1.3,0,2.4-1.1,2.4-2.4
			C346.4,390.9,345.3,389.8,344,389.8z M306.9,530.5c-1.3,0-2.4,1.1-2.4,2.4c0,1.3,1.1,2.4,2.4,2.4c1.3,0,2.4-1.1,2.4-2.4
			C309.4,531.6,308.3,530.5,306.9,530.5z M344,536.7c-1.3,0-2.4,1.1-2.4,2.4c0,1.3,1.1,2.4,2.4,2.4c1.3,0,2.4-1.1,2.4-2.4
			C346.4,537.8,345.3,536.7,344,536.7z M344,571.2c-1.3,0-2.4,1.1-2.4,2.4c0,1.3,1.1,2.4,2.4,2.4c1.3,0,2.4-1.1,2.4-2.4
			C346.4,572.3,345.3,571.2,344,571.2z M344,622.2c-1.3,0-2.4,1.1-2.4,2.4c0,1.3,1.1,2.4,2.4,2.4c1.3,0,2.4-1.1,2.4-2.4
			C346.4,623.3,345.3,622.2,344,622.2z M426.7,331.8c0-1.3-1.1-2.4-2.4-2.4c-1.3,0-2.4,1.1-2.4,2.4c0,1.3,1.1,2.4,2.4,2.4
			C425.6,334.3,426.7,333.2,426.7,331.8z M344.3,366.7c-1.3,0-2.4,1.1-2.4,2.4c0,1.3,1.1,2.4,2.4,2.4c1.3,0,2.4-1.1,2.4-2.4
			C346.8,367.8,345.7,366.7,344.3,366.7z M369.9,346.7c0-1.3-1.1-2.4-2.4-2.4c-1.3,0-2.4,1.1-2.4,2.4c0,1.3,1.1,2.4,2.4,2.4
			C368.8,349.1,369.9,348,369.9,346.7z M335.3,389.8c-1.3,0-2.4,1.1-2.4,2.4c0,1.3,1.1,2.4,2.4,2.4c1.3,0,2.4-1.1,2.4-2.4
			C337.8,390.9,336.7,389.8,335.3,389.8z M335.3,398.5c-1.3,0-2.4,1.1-2.4,2.4c0,1.3,1.1,2.4,2.4,2.4c1.3,0,2.4-1.1,2.4-2.4
			C337.8,399.6,336.7,398.5,335.3,398.5z M369.9,403.4c1.3,0,2.4-1.1,2.4-2.4c0-1.3-1.1-2.4-2.4-2.4c-1.3,0-2.4,1.1-2.4,2.4
			C367.5,402.3,368.6,403.4,369.9,403.4z M300.7,467.6c0-1.3-1.1-2.4-2.4-2.4c-1.3,0-2.4,1.1-2.4,2.4c0,1.3,1.1,2.4,2.4,2.4
			C299.6,470,300.7,468.9,300.7,467.6z M335.3,579.9c-1.3,0-2.4,1.1-2.4,2.4c0,1.3,1.1,2.4,2.4,2.4c1.3,0,2.4-1.1,2.4-2.4
			C337.8,581,336.7,579.9,335.3,579.9z M335.3,597.2c-1.3,0-2.4,1.1-2.4,2.4c0,1.3,1.1,2.4,2.4,2.4c1.3,0,2.4-1.1,2.4-2.4
			C337.8,598.3,336.7,597.2,335.3,597.2z M326.7,139.3c-1.3,0-2.4,1.1-2.4,2.4c0,1.3,1.1,2.4,2.4,2.4c1.3,0,2.4-1.1,2.4-2.4
			C329.1,140.4,328,139.3,326.7,139.3z M326.7,338c-1.3,0-2.4,1.1-2.4,2.4c0,1.3,1.1,2.4,2.4,2.4c1.3,0,2.4-1.1,2.4-2.4
			C329.1,339.1,328,338,326.7,338z M326.7,346.7c-1.3,0-2.4,1.1-2.4,2.4c0,1.3,1.1,2.4,2.4,2.4c1.3,0,2.4-1.1,2.4-2.4
			C329.1,347.7,328,346.7,326.7,346.7z M326.7,398.5c-1.3,0-2.4,1.1-2.4,2.4c0,1.3,1.1,2.4,2.4,2.4c1.3,0,2.4-1.1,2.4-2.4
			C329.1,399.6,328,398.5,326.7,398.5z M281,430.6c-1.3,0-2.4,1.1-2.4,2.4c0,1.3,1.1,2.4,2.4,2.4c1.3,0,2.4-1.1,2.4-2.4
			C283.4,431.7,282.3,430.6,281,430.6z M326.7,433c-1.3,0-2.4,1.1-2.4,2.4c0,1.3,1.1,2.4,2.4,2.4c1.3,0,2.4-1.1,2.4-2.4
			C329.1,434.1,328,433,326.7,433z M292.1,484.9c-1.3,0-2.4,1.1-2.4,2.4c0,1.3,1.1,2.4,2.4,2.4c1.3,0,2.4-1.1,2.4-2.4
			C294.5,486,293.4,484.9,292.1,484.9z M326.7,484.9c-1.3,0-2.4,1.1-2.4,2.4c0,1.3,1.1,2.4,2.4,2.4c1.3,0,2.4-1.1,2.4-2.4
			C329.1,486,328,484.9,326.7,484.9z M318,320.7c-1.3,0-2.4,1.1-2.4,2.4c0,1.3,1.1,2.4,2.4,2.4c1.3,0,2.4-1.1,2.4-2.4
			C320.5,321.8,319.4,320.7,318,320.7z M381,326.9c-1.3,0-2.4,1.1-2.4,2.4c0,1.3,1.1,2.4,2.4,2.4c1.3,0,2.4-1.1,2.4-2.4
			C383.4,328,382.4,326.9,381,326.9z M369.9,366.4c-1.3,0-2.4,1.1-2.4,2.4c0,1.3,1.1,2.4,2.4,2.4c1.3,0,2.4-1.1,2.4-2.4
			C372.4,367.5,371.3,366.4,369.9,366.4z M318,355.3c-1.3,0-2.4,1.1-2.4,2.4c0,1.3,1.1,2.4,2.4,2.4c1.3,0,2.4-1.1,2.4-2.4
			C320.5,356.4,319.4,355.3,318,355.3z M318,372.6c-1.3,0-2.4,1.1-2.4,2.4c0,1.3,1.1,2.4,2.4,2.4c1.3,0,2.4-1.1,2.4-2.4
			C320.5,373.7,319.4,372.6,318,372.6z M318,389.8c-1.3,0-2.4,1.1-2.4,2.4c0,1.3,1.1,2.4,2.4,2.4c1.3,0,2.4-1.1,2.4-2.4
			C320.5,390.9,319.4,389.8,318,389.8z M318,433c-1.3,0-2.4,1.1-2.4,2.4c0,1.3,1.1,2.4,2.4,2.4c1.3,0,2.4-1.1,2.4-2.4
			C320.5,434.1,319.4,433,318,433z M318,450.3c-1.3,0-2.4,1.1-2.4,2.4c0,1.3,1.1,2.4,2.4,2.4c1.3,0,2.4-1.1,2.4-2.4
			C320.5,451.4,319.4,450.3,318,450.3z M318,467.6c-1.3,0-2.4,1.1-2.4,2.4c0,1.3,1.1,2.4,2.4,2.4c1.3,0,2.4-1.1,2.4-2.4
			C320.5,468.7,319.4,467.6,318,467.6z M439.1,359.1c-1.3,0-2.4,1.1-2.4,2.4c0,1.3,1.1,2.4,2.4,2.4c1.3,0,2.4-1.1,2.4-2.4
			C441.6,360.2,440.5,359.1,439.1,359.1z M309.4,415.8c-1.3,0-2.4,1.1-2.4,2.4c0,1.3,1.1,2.4,2.4,2.4c1.3,0,2.4-1.1,2.4-2.4
			C311.8,416.9,310.7,415.8,309.4,415.8z M309.4,424.4c-1.3,0-2.4,1.1-2.4,2.4c0,1.3,1.1,2.4,2.4,2.4c1.3,0,2.4-1.1,2.4-2.4
			C311.8,425.5,310.7,424.4,309.4,424.4z M587.7,691.7c-1.3,0-2.4,1.1-2.4,2.4c0,1.3,1.1,2.4,2.4,2.4c1.3,0,2.4-1.1,2.4-2.4
			C590.2,692.7,589.1,691.7,587.7,691.7z M300.7,424.4c-1.3,0-2.4,1.1-2.4,2.4c0,1.3,1.1,2.4,2.4,2.4c1.3,0,2.4-1.1,2.4-2.4
			C303.2,425.5,302.1,424.4,300.7,424.4z M292.1,303.5c-1.3,0-2.4,1.1-2.4,2.4c0,1.3,1.1,2.4,2.4,2.4c1.3,0,2.4-1.1,2.4-2.4
			C294.5,304.6,293.4,303.5,292.1,303.5z M172.1,560.7c-1.3,0-2.4,1.1-2.4,2.4c0,1.3,1.1,2.4,2.4,2.4c1.3,0,2.4-1.1,2.4-2.4
			C174.5,561.8,173.4,560.7,172.1,560.7z M395.9,361.5c-1.3,0-2.4,1.1-2.4,2.4c0,1.3,1.1,2.4,2.4,2.4c1.3,0,2.4-1.1,2.4-2.4
			C398.3,362.6,397.2,361.5,395.9,361.5z M253.7,503.2c0-1.3-1.1-2.4-2.4-2.4c-1.3,0-2.4,1.1-2.4,2.4c0,1.3,1.1,2.4,2.4,2.4
			C252.6,505.7,253.7,504.6,253.7,503.2z M292.1,415.8c-1.3,0-2.4,1.1-2.4,2.4c0,1.3,1.1,2.4,2.4,2.4c1.3,0,2.4-1.1,2.4-2.4
			C294.5,416.9,293.4,415.8,292.1,415.8z M188.8,510.3c-1.3,0-2.4,1.1-2.4,2.4c0,1.3,1.1,2.4,2.4,2.4c1.3,0,2.4-1.1,2.4-2.4
			C191.2,511.4,190.1,510.3,188.8,510.3z M147.4,372.6c-1.3,0-2.4,1.1-2.4,2.4c0,1.3,1.1,2.4,2.4,2.4c1.3,0,2.4-1.1,2.4-2.4
			C149.9,373.7,148.8,372.6,147.4,372.6z M266.1,156.6c-1.3,0-2.4,1.1-2.4,2.4c0,1.3,1.1,2.4,2.4,2.4c1.3,0,2.4-1.1,2.4-2.4
			C268.5,157.7,267.5,156.6,266.1,156.6z M266.1,173.9c-1.3,0-2.4,1.1-2.4,2.4c0,1.3,1.1,2.4,2.4,2.4c1.3,0,2.4-1.1,2.4-2.4
			C268.5,175,267.5,173.9,266.1,173.9z M196.9,145.5c-1.3,0-2.4,1.1-2.4,2.4c0,1.3,1.1,2.4,2.4,2.4c1.3,0,2.4-1.1,2.4-2.4
			C199.3,146.6,198.3,145.5,196.9,145.5z M227.7,467.6c-1.3,0-2.4,1.1-2.4,2.4c0,1.3,1.1,2.4,2.4,2.4c1.3,0,2.4-1.1,2.4-2.4
			C230.2,468.7,229.1,467.6,227.7,467.6z M237.7,418.2c-1.3,0-2.4,1.1-2.4,2.4c0,1.3,1.1,2.4,2.4,2.4c1.3,0,2.4-1.1,2.4-2.4
			C240.2,419.3,239.1,418.2,237.7,418.2z M257.5,191.2c-1.3,0-2.4,1.1-2.4,2.4c0,1.3,1.1,2.4,2.4,2.4c1.3,0,2.4-1.1,2.4-2.4
			C259.9,192.3,258.8,191.2,257.5,191.2z M257.5,208.4c-1.3,0-2.4,1.1-2.4,2.4c0,1.3,1.1,2.4,2.4,2.4c1.3,0,2.4-1.1,2.4-2.4
			C259.9,209.5,258.8,208.4,257.5,208.4z M218,139.3c-1.3,0-2.4,1.1-2.4,2.4c0,1.3,1.1,2.4,2.4,2.4c1.3,0,2.4-1.1,2.4-2.4
			C220.4,140.4,219.3,139.3,218,139.3z M257.5,320.7c-1.3,0-2.4,1.1-2.4,2.4c0,1.3,1.1,2.4,2.4,2.4c1.3,0,2.4-1.1,2.4-2.4
			C259.9,321.8,258.8,320.7,257.5,320.7z M178.3,409.6c-1.3,0-2.4,1.1-2.4,2.4c0,1.3,1.1,2.4,2.4,2.4c1.3,0,2.4-1.1,2.4-2.4
			C180.7,410.6,179.6,409.6,178.3,409.6z M123.5,449.7c-1.3,0-2.4,1.1-2.4,2.4c0,1.3,1.1,2.4,2.4,2.4c1.3,0,2.4-1.1,2.4-2.4
			C125.9,450.7,124.8,449.7,123.5,449.7z M173.5,466.6c-1.3,0-2.4,1.1-2.4,2.4c0,1.3,1.1,2.4,2.4,2.4c1.3,0,2.4-1.1,2.4-2.4
			C175.9,467.7,174.8,466.6,173.5,466.6z M256.5,455.8c-1.3,0-2.4,1.1-2.4,2.4c0,1.3,1.1,2.4,2.4,2.4c1.3,0,2.4-1.1,2.4-2.4
			C258.9,456.9,257.8,455.8,256.5,455.8z M257.5,398.5c-1.3,0-2.4,1.1-2.4,2.4c0,1.3,1.1,2.4,2.4,2.4c1.3,0,2.4-1.1,2.4-2.4
			C259.9,399.6,258.8,398.5,257.5,398.5z M248.8,161.5c1.3,0,2.4-1.1,2.4-2.4c0-1.3-1.1-2.4-2.4-2.4c-1.3,0-2.4,1.1-2.4,2.4
			C246.4,160.4,247.5,161.5,248.8,161.5z M248.8,178.8c1.3,0,2.4-1.1,2.4-2.4c0-1.3-1.1-2.4-2.4-2.4c-1.3,0-2.4,1.1-2.4,2.4
			C246.4,177.7,247.5,178.8,248.8,178.8z M248.8,196c1.3,0,2.4-1.1,2.4-2.4c0-1.3-1.1-2.4-2.4-2.4c-1.3,0-2.4,1.1-2.4,2.4
			C246.4,195,247.5,196,248.8,196z M395.8,32.3c1.3,0,2.4-1.1,2.4-2.4c0-1.3-1.1-2.4-2.4-2.4c-1.3,0-2.4,1.1-2.4,2.4
			C393.4,31.2,394.5,32.3,395.8,32.3z M248.8,325.6c1.3,0,2.4-1.1,2.4-2.4c0-1.3-1.1-2.4-2.4-2.4c-1.3,0-2.4,1.1-2.4,2.4
			C246.4,324.5,247.5,325.6,248.8,325.6z M248.8,342.9c1.3,0,2.4-1.1,2.4-2.4c0-1.3-1.1-2.4-2.4-2.4c-1.3,0-2.4,1.1-2.4,2.4
			C246.4,341.8,247.5,342.9,248.8,342.9z M248.8,351.5c1.3,0,2.4-1.1,2.4-2.4c0-1.3-1.1-2.4-2.4-2.4c-1.3,0-2.4,1.1-2.4,2.4
			C246.4,350.4,247.5,351.5,248.8,351.5z M248.8,377.4c1.3,0,2.4-1.1,2.4-2.4c0-1.3-1.1-2.4-2.4-2.4c-1.3,0-2.4,1.1-2.4,2.4
			C246.4,376.3,247.5,377.4,248.8,377.4z M248.8,394.7c1.3,0,2.4-1.1,2.4-2.4c0-1.3-1.1-2.4-2.4-2.4c-1.3,0-2.4,1.1-2.4,2.4
			C246.4,393.6,247.5,394.7,248.8,394.7z M251.2,400.9c0-1.3-1.1-2.4-2.4-2.4c-1.3,0-2.4,1.1-2.4,2.4c0,1.3,1.1,2.4,2.4,2.4
			C250.2,403.4,251.2,402.3,251.2,400.9z M240.2,191.2c-1.3,0-2.4,1.1-2.4,2.4c0,1.3,1.1,2.4,2.4,2.4c1.3,0,2.4-1.1,2.4-2.4
			C242.6,192.3,241.5,191.2,240.2,191.2z M240.2,199.8c-1.3,0-2.4,1.1-2.4,2.4c0,1.3,1.1,2.4,2.4,2.4c1.3,0,2.4-1.1,2.4-2.4
			C242.6,200.9,241.5,199.8,240.2,199.8z M240.2,329.4c-1.3,0-2.4,1.1-2.4,2.4c0,1.3,1.1,2.4,2.4,2.4c1.3,0,2.4-1.1,2.4-2.4
			C242.6,330.5,241.5,329.4,240.2,329.4z M240.2,346.7c-1.3,0-2.4,1.1-2.4,2.4c0,1.3,1.1,2.4,2.4,2.4c1.3,0,2.4-1.1,2.4-2.4
			C242.6,347.7,241.5,346.7,240.2,346.7z M240.2,363.9c-1.3,0-2.4,1.1-2.4,2.4c0,1.3,1.1,2.4,2.4,2.4c1.3,0,2.4-1.1,2.4-2.4
			C242.6,365,241.5,363.9,240.2,363.9z M240.2,372.6c-1.3,0-2.4,1.1-2.4,2.4c0,1.3,1.1,2.4,2.4,2.4c1.3,0,2.4-1.1,2.4-2.4
			C242.6,373.7,241.5,372.6,240.2,372.6z M231.5,165.3c-1.3,0-2.4,1.1-2.4,2.4c0,1.3,1.1,2.4,2.4,2.4c1.3,0,2.4-1.1,2.4-2.4
			C233.9,166.3,232.9,165.3,231.5,165.3z M231.5,199.8c-1.3,0-2.4,1.1-2.4,2.4c0,1.3,1.1,2.4,2.4,2.4c1.3,0,2.4-1.1,2.4-2.4
			C233.9,200.9,232.9,199.8,231.5,199.8z M231.5,208.4c-1.3,0-2.4,1.1-2.4,2.4c0,1.3,1.1,2.4,2.4,2.4c1.3,0,2.4-1.1,2.4-2.4
			C233.9,209.5,232.9,208.4,231.5,208.4z M211.8,404.7c-1.3,0-2.4,1.1-2.4,2.4c0,1.3,1.1,2.4,2.4,2.4c1.3,0,2.4-1.1,2.4-2.4
			C214.2,405.8,213.1,404.7,211.8,404.7z M231.5,381.2c-1.3,0-2.4,1.1-2.4,2.4c0,1.3,1.1,2.4,2.4,2.4c1.3,0,2.4-1.1,2.4-2.4
			C233.9,382.3,232.9,381.2,231.5,381.2z M222.9,351.5c1.3,0,2.4-1.1,2.4-2.4c0-1.3-1.1-2.4-2.4-2.4c-1.3,0-2.4,1.1-2.4,2.4
			C220.4,350.4,221.5,351.5,222.9,351.5z M222.9,363.9c-1.3,0-2.4,1.1-2.4,2.4c0,1.3,1.1,2.4,2.4,2.4c1.3,0,2.4-1.1,2.4-2.4
			C225.3,365,224.2,363.9,222.9,363.9z M188.3,375c1.3,0,2.4-1.1,2.4-2.4c0-1.3-1.1-2.4-2.4-2.4c-1.3,0-2.4,1.1-2.4,2.4
			C185.8,373.9,186.9,375,188.3,375z M214.2,165.3c-1.3,0-2.4,1.1-2.4,2.4c0,1.3,1.1,2.4,2.4,2.4c1.3,0,2.4-1.1,2.4-2.4
			C216.6,166.3,215.6,165.3,214.2,165.3z M214.2,346.7c-1.3,0-2.4,1.1-2.4,2.4c0,1.3,1.1,2.4,2.4,2.4c1.3,0,2.4-1.1,2.4-2.4
			C216.6,347.7,215.6,346.7,214.2,346.7z M159.9,349.1c-1.3,0-2.4,1.1-2.4,2.4c0,1.3,1.1,2.4,2.4,2.4c1.3,0,2.4-1.1,2.4-2.4
			C162.3,350.2,161.2,349.1,159.9,349.1z M130.1,301c-1.3,0-2.4,1.1-2.4,2.4c0,1.3,1.1,2.4,2.4,2.4c1.3,0,2.4-1.1,2.4-2.4
			C132.6,302.1,131.5,301,130.1,301z M188.3,338c0-1.3-1.1-2.4-2.4-2.4c-1.3,0-2.4,1.1-2.4,2.4c0,1.3,1.1,2.4,2.4,2.4
			C187.2,340.5,188.3,339.4,188.3,338z M205.6,329.4c-1.3,0-2.4,1.1-2.4,2.4c0,1.3,1.1,2.4,2.4,2.4c1.3,0,2.4-1.1,2.4-2.4
			C208,330.5,206.9,329.4,205.6,329.4z M205.6,338c-1.3,0-2.4,1.1-2.4,2.4c0,1.3,1.1,2.4,2.4,2.4c1.3,0,2.4-1.1,2.4-2.4
			C208,339.1,206.9,338,205.6,338z M205.6,370.1c-1.3,0-2.4,1.1-2.4,2.4c0,1.3,1.1,2.4,2.4,2.4c1.3,0,2.4-1.1,2.4-2.4
			C208,371.2,206.9,370.1,205.6,370.1z M259.9,43.1c-1.3,0-2.4,1.1-2.4,2.4c0,1.3,1.1,2.4,2.4,2.4c1.3,0,2.4-1.1,2.4-2.4
			C262.3,44.2,261.2,43.1,259.9,43.1z M149.9,309.7c-1.3,0-2.4,1.1-2.4,2.4c0,1.3,1.1,2.4,2.4,2.4c1.3,0,2.4-1.1,2.4-2.4
			C152.3,310.8,151.2,309.7,149.9,309.7z M318,68.5c0-1.3-1.1-2.4-2.4-2.4c-1.3,0-2.4,1.1-2.4,2.4c0,1.3,1.1,2.4,2.4,2.4
			C316.9,71,318,69.9,318,68.5z M173.4,228.2c0-1.3-1.1-2.4-2.4-2.4c-1.3,0-2.4,1.1-2.4,2.4c0,1.3,1.1,2.4,2.4,2.4
			C172.3,230.6,173.4,229.5,173.4,228.2z M162.3,225.7c-1.3,0-2.4,1.1-2.4,2.4c0,1.3,1.1,2.4,2.4,2.4c1.3,0,2.4-1.1,2.4-2.4
			C164.7,226.8,163.6,225.7,162.3,225.7z M147.4,155.3c1.3,0,2.4-1.1,2.4-2.4c0-1.3-1.1-2.4-2.4-2.4c-1.3,0-2.4,1.1-2.4,2.4
			C145,154.2,146.1,155.3,147.4,155.3z M162.3,260.3c-1.3,0-2.4,1.1-2.4,2.4c0,1.3,1.1,2.4,2.4,2.4c1.3,0,2.4-1.1,2.4-2.4
			C164.7,261.4,163.6,260.3,162.3,260.3z M162.3,268.9c-1.3,0-2.4,1.1-2.4,2.4c0,1.3,1.1,2.4,2.4,2.4c1.3,0,2.4-1.1,2.4-2.4
			C164.7,270,163.6,268.9,162.3,268.9z M230.3,283.4c1.3,0,2.4-1.1,2.4-2.4c0-1.3-1.1-2.4-2.4-2.4s-2.4,1.1-2.4,2.4
			C227.9,282.3,229,283.4,230.3,283.4z M153.6,217.1c-1.3,0-2.4,1.1-2.4,2.4c0,1.3,1.1,2.4,2.4,2.4c1.3,0,2.4-1.1,2.4-2.4
			C156.1,218.2,155,217.1,153.6,217.1z M180.6,82.7c-1.3,0-2.4,1.1-2.4,2.4c0,1.3,1.1,2.4,2.4,2.4c1.3,0,2.4-1.1,2.4-2.4
			C183.1,83.8,182,82.7,180.6,82.7z M147.4,196c1.3,0,2.4-1.1,2.4-2.4c0-1.3-1.1-2.4-2.4-2.4c-1.3,0-2.4,1.1-2.4,2.4
			C145,195,146.1,196,147.4,196z M147.4,219.5c0-1.3-1.1-2.4-2.4-2.4c-1.3,0-2.4,1.1-2.4,2.4c0,1.3,1.1,2.4,2.4,2.4
			C146.3,222,147.4,220.9,147.4,219.5z M206,254.7c-1.3,0-2.4,1.1-2.4,2.4c0,1.3,1.1,2.4,2.4,2.4c1.3,0,2.4-1.1,2.4-2.4
			C208.4,255.8,207.3,254.7,206,254.7z M101.3,117.3c1.3,0,2.4-1.1,2.4-2.4c0-1.3-1.1-2.4-2.4-2.4c-1.3,0-2.4,1.1-2.4,2.4
			C98.9,116.2,100,117.3,101.3,117.3z M136.3,217.1c-1.3,0-2.4,1.1-2.4,2.4c0,1.3,1.1,2.4,2.4,2.4c1.3,0,2.4-1.1,2.4-2.4
			C138.8,218.2,137.7,217.1,136.3,217.1z M194.3,202.4c-1.3,0-2.4,1.1-2.4,2.4c0,1.3,1.1,2.4,2.4,2.4c1.3,0,2.4-1.1,2.4-2.4
			C196.8,203.5,195.7,202.4,194.3,202.4z M125.3,210.9c0,1.3,1.1,2.4,2.4,2.4c1.3,0,2.4-1.1,2.4-2.4c0-1.3-1.1-2.4-2.4-2.4
			C126.3,208.4,125.3,209.5,125.3,210.9z M170.9,165.3c0-1.3-1.1-2.4-2.4-2.4c-1.3,0-2.4,1.1-2.4,2.4c0,1.3,1.1,2.4,2.4,2.4
			C169.9,167.7,170.9,166.6,170.9,165.3z M127.7,234.4c-1.3,0-2.4,1.1-2.4,2.4c0,1.3,1.1,2.4,2.4,2.4c1.3,0,2.4-1.1,2.4-2.4
			C130.1,235.5,129,234.4,127.7,234.4z M127.7,251.6c-1.3,0-2.4,1.1-2.4,2.4c0,1.3,1.1,2.4,2.4,2.4c1.3,0,2.4-1.1,2.4-2.4
			C130.1,252.7,129,251.6,127.7,251.6z M119,213.3c1.3,0,2.4-1.1,2.4-2.4c0-1.3-1.1-2.4-2.4-2.4c-1.3,0-2.4,1.1-2.4,2.4
			C116.6,212.2,117.7,213.3,119,213.3z M123.9,189.8c1.3,0,2.4-1.1,2.4-2.4c0-1.3-1.1-2.4-2.4-2.4c-1.3,0-2.4,1.1-2.4,2.4
			C121.5,188.8,122.6,189.8,123.9,189.8z M121.5,245.4c0-1.3-1.1-2.4-2.4-2.4c-1.3,0-2.4,1.1-2.4,2.4c0,1.3,1.1,2.4,2.4,2.4
			C120.4,247.9,121.5,246.8,121.5,245.4z M123.9,271.4c0-1.3-1.1-2.4-2.4-2.4c-1.3,0-2.4,1.1-2.4,2.4c0,1.3,1.1,2.4,2.4,2.4
			C122.8,273.8,123.9,272.7,123.9,271.4z M113.4,154.4c-1.3,0-2.4,1.1-2.4,2.4c0,1.3,1.1,2.4,2.4,2.4c1.3,0,2.4-1.1,2.4-2.4
			C115.8,155.5,114.7,154.4,113.4,154.4z M110.4,234.4c-1.3,0-2.4,1.1-2.4,2.4c0,1.3,1.1,2.4,2.4,2.4c1.3,0,2.4-1.1,2.4-2.4
			C112.8,235.5,111.7,234.4,110.4,234.4z M71.8,334.4c0-1.3-1.1-2.4-2.4-2.4c-1.3,0-2.4,1.1-2.4,2.4c0,1.3,1.1,2.4,2.4,2.4
			C70.7,336.9,71.8,335.8,71.8,334.4z M191.4,286.6c-1.3,0-2.4,1.1-2.4,2.4c0,1.3,1.1,2.4,2.4,2.4c1.3,0,2.4-1.1,2.4-2.4
			C193.8,287.7,192.7,286.6,191.4,286.6z M97.7,309.3c-1.3,0-2.4,1.1-2.4,2.4c0,1.3,1.1,2.4,2.4,2.4c1.3,0,2.4-1.1,2.4-2.4
			C100.2,310.4,99.1,309.3,97.7,309.3z M101.7,199.8c-1.3,0-2.4,1.1-2.4,2.4c0,1.3,1.1,2.4,2.4,2.4c1.3,0,2.4-1.1,2.4-2.4
			C104.2,200.9,103.1,199.8,101.7,199.8z M17.2,182.9c0-1.3-1.1-2.4-2.4-2.4c-1.3,0-2.4,1.1-2.4,2.4c0,1.3,1.1,2.4,2.4,2.4
			C16.1,185.3,17.2,184.2,17.2,182.9z M101.7,217.1c-1.3,0-2.4,1.1-2.4,2.4c0,1.3,1.1,2.4,2.4,2.4c1.3,0,2.4-1.1,2.4-2.4
			C104.2,218.2,103.1,217.1,101.7,217.1z M101.7,234.4c-1.3,0-2.4,1.1-2.4,2.4c0,1.3,1.1,2.4,2.4,2.4c1.3,0,2.4-1.1,2.4-2.4
			C104.2,235.5,103.1,234.4,101.7,234.4z M138.8,171.5c-1.3,0-2.4,1.1-2.4,2.4c0,1.3,1.1,2.4,2.4,2.4c1.3,0,2.4-1.1,2.4-2.4
			C141.2,172.6,140.1,171.5,138.8,171.5z M101.7,251.6c-1.3,0-2.4,1.1-2.4,2.4c0,1.3,1.1,2.4,2.4,2.4c1.3,0,2.4-1.1,2.4-2.4
			C104.2,252.7,103.1,251.6,101.7,251.6z M124.7,307.3c-1.3,0-2.4,1.1-2.4,2.4c0,1.3,1.1,2.4,2.4,2.4c1.3,0,2.4-1.1,2.4-2.4
			C127.2,308.4,126.1,307.3,124.7,307.3z M101.7,268.9c-1.3,0-2.4,1.1-2.4,2.4c0,1.3,1.1,2.4,2.4,2.4c1.3,0,2.4-1.1,2.4-2.4
			C104.2,270,103.1,268.9,101.7,268.9z M45.5,104.2c0-1.3-1.1-2.4-2.4-2.4c-1.3,0-2.4,1.1-2.4,2.4c0,1.3,1.1,2.4,2.4,2.4
			C44.4,106.7,45.5,105.6,45.5,104.2z M20.1,167.1c-1.3,0-2.4,1.1-2.4,2.4c0,1.3,1.1,2.4,2.4,2.4c1.3,0,2.4-1.1,2.4-2.4
			C22.5,168.2,21.4,167.1,20.1,167.1z M53.5,197.8c0-1.3-1.1-2.4-2.4-2.4c-1.3,0-2.4,1.1-2.4,2.4c0,1.3,1.1,2.4,2.4,2.4
			C52.4,200.2,53.5,199.1,53.5,197.8z M71.1,457.9c-1.3,0-2.4,1.1-2.4,2.4c0,1.3,1.1,2.4,2.4,2.4c1.3,0,2.4-1.1,2.4-2.4
			C73.5,459,72.4,457.9,71.1,457.9z M84.4,173.9c-1.3,0-2.4,1.1-2.4,2.4c0,1.3,1.1,2.4,2.4,2.4c1.3,0,2.4-1.1,2.4-2.4
			C86.9,175,85.8,173.9,84.4,173.9z M84.4,217.1c-1.3,0-2.4,1.1-2.4,2.4c0,1.3,1.1,2.4,2.4,2.4c1.3,0,2.4-1.1,2.4-2.4
			C86.9,218.2,85.8,217.1,84.4,217.1z M54.4,254.7c-1.3,0-2.4,1.1-2.4,2.4c0,1.3,1.1,2.4,2.4,2.4c1.3,0,2.4-1.1,2.4-2.4
			C56.9,255.8,55.8,254.7,54.4,254.7z M84.4,234.4c-1.3,0-2.4,1.1-2.4,2.4c0,1.3,1.1,2.4,2.4,2.4c1.3,0,2.4-1.1,2.4-2.4
			C86.9,235.5,85.8,234.4,84.4,234.4z M2.4,273c-1.3,0-2.4,1.1-2.4,2.4c0,1.3,1.1,2.4,2.4,2.4c1.3,0,2.4-1.1,2.4-2.4
			C4.9,274.1,3.8,273,2.4,273z M16.4,326.3c-1.3,0-2.4,1.1-2.4,2.4c0,1.3,1.1,2.4,2.4,2.4c1.3,0,2.4-1.1,2.4-2.4
			C18.9,327.4,17.8,326.3,16.4,326.3z M124.4,390.9c-1.3,0-2.4,1.1-2.4,2.4c0,1.3,1.1,2.4,2.4,2.4c1.3,0,2.4-1.1,2.4-2.4
			C126.9,392,125.8,390.9,124.4,390.9z M84.4,277.6c-1.3,0-2.4,1.1-2.4,2.4c0,1.3,1.1,2.4,2.4,2.4c1.3,0,2.4-1.1,2.4-2.4
			C86.9,278.6,85.8,277.6,84.4,277.6z M75.8,225.7c-1.3,0-2.4,1.1-2.4,2.4c0,1.3,1.1,2.4,2.4,2.4c1.3,0,2.4-1.1,2.4-2.4
			C78.2,226.8,77.1,225.7,75.8,225.7z M44.9,234.4c-1.3,0-2.4,1.1-2.4,2.4c0,1.3,1.1,2.4,2.4,2.4c1.3,0,2.4-1.1,2.4-2.4
			C47.4,235.5,46.3,234.4,44.9,234.4z M75.8,251.6c-1.3,0-2.4,1.1-2.4,2.4c0,1.3,1.1,2.4,2.4,2.4c1.3,0,2.4-1.1,2.4-2.4
			C78.2,252.7,77.1,251.6,75.8,251.6z M75.8,277.6c-1.3,0-2.4,1.1-2.4,2.4c0,1.3,1.1,2.4,2.4,2.4c1.3,0,2.4-1.1,2.4-2.4
			C78.2,278.6,77.1,277.6,75.8,277.6z"/>
	</g>
</g>
</svg>
