<?xml version="1.0" encoding="utf-8"?>
<!-- Generator: Adobe Illustrator 18.0.0, SVG Export Plug-In . SVG Version: 6.00 Build 0)  -->
<!DOCTYPE svg PUBLIC "-//W3C//DTD SVG 1.1//EN" "http://www.w3.org/Graphics/SVG/1.1/DTD/svg11.dtd">
<svg version="1.1" id="Layer_1" xmlns="http://www.w3.org/2000/svg" xmlns:xlink="http://www.w3.org/1999/xlink" x="0px" y="0px"
	 viewBox="0 0 173.6 252.6" enable-background="new 0 0 173.6 252.6" xml:space="preserve">
<path d="M82.8,252.6c-8.9,0-7.8,0.1-16.7,0c-5.2,0-8.6-3.7-8-8.4c0.5-4,3.6-6.5,8.4-6.5c14.5,0,19,0,33.5,0c3.2,0,6.5,0,9.7,0
	c4.7,0.1,8,3.2,7.9,7.5c0,4.3-3.3,7.3-8.1,7.3C100.6,252.5,91.7,252.5,82.8,252.6C82.8,252.5,82.8,252.6,82.8,252.6z"/>
<path d="M82.8,232.6c-8.9,0-17.8,0.1-26.7,0c-5.2,0-8.6-3.7-8-8.4c0.5-4,3.6-6.5,8.4-6.5c14.5,0,29,0,43.5,0c3.2,0,16.5,0,19.7,0
	c4.7,0.1,8,3.2,7.9,7.5c0,4.3-3.3,7.3-8.1,7.3C110.6,232.5,91.7,232.5,82.8,232.6C82.8,232.5,82.8,232.6,82.8,232.6z"/>
<path d="M86.7,125.3c7.2-7.2,14-14.1,20.9-20.9c1.1-1.1,2.1-2.1,3.2-3.2c3.3-3.2,7.2-3.4,10.2-0.5c2.7,2.6,2.9,7,0.1,10.1
	c-2.1,2.4-4.5,4.5-6.7,6.7c-6.9,6.7-13.9,13.4-20.8,20.2c-0.7,0.7-1.1,2.2-1.1,3.3c-0.1,15.8,0,21.7-0.1,37.5c0,1.4-0.1,2.8-0.5,4.2
	c-0.7,2.6-2.6,3.9-5.1,3.9c-2.6,0-4.3-1.3-5.1-4c-0.4-1.3-0.5-2.8-0.5-4.2c0-15.7,0-21.5,0-37.2c0-1.7-0.5-2.9-1.8-4.1
	c-8.6-8.2-17.1-16.5-25.7-24.8c-0.8-0.8-1.6-1.7-2.3-2.7c-2.1-3.4-1.6-7.1,1.1-9.2c3-2.4,7-2.3,9.8,0.5c4.9,4.8,9.8,9.8,14.7,14.7
	C80.2,118.7,83.3,121.9,86.7,125.3z"/>
<path d="M86.7,212.1c-11.2,0-22.5-0.2-33.7,0.1c-5.5,0.2-9.2-2.2-12.3-6.3c-4.1-5.5-5.7-11.8-6-18.5c-0.4-7.6-0.7-15.3-1.4-22.9
	c-0.7-7.5-3.7-14-8.6-19.9C14.6,132.3,6,119,2.4,103.2c-6.6-29,0.7-54.6,20.7-76.2C41,7.6,63.8-0.7,90.1,0.1
	C130.8,1.3,164,29,172,68.8c4.4,21.8-0.4,41.8-12.1,60.4c-3.3,5.2-6.8,10.3-10.7,15c-5.9,7-8.7,15.1-9.4,24
	c-0.5,6.4-0.6,12.8-0.9,19.2c-0.4,8.1-2.5,15.4-8.5,21.3c-2.4,2.3-5.1,3.5-8.5,3.5C110.2,212,98.5,212.1,86.7,212.1z M86.8,196.1
	c9.3,0,18.7,0,28,0c6.4,0,7.3-0.9,8-7.4c0.1-0.6,0.1-1.2,0.1-1.7c0.3-6.6,0.4-13.1,1-19.7c1-12.2,4.8-23.4,12.8-33
	c3.5-4.1,6.6-8.6,9.5-13.2c11.6-18,15.1-37.4,7.9-57.7c-9.9-27.7-29.9-43.8-59.2-46.9c-25.5-2.7-47.5,5.2-63.5,25.6
	c-16,20.4-19.8,43.2-9.8,67.6c3.9,9.4,9.8,17.6,16.2,25.4c5.4,6.7,9.4,14.2,10.7,22.8c1.2,8.2,1.6,16.5,2.4,24.8
	c0.4,3.6,0.8,7.2,1.4,10.8c0.3,1.8,1.5,2.6,3.6,2.5C66,196,76.4,196.1,86.8,196.1z"/>
</svg>
