<?xml version="1.0" encoding="utf-8"?>
<!-- Generator: Adobe Illustrator 18.0.0, SVG Export Plug-In . SVG Version: 6.00 Build 0)  -->
<!DOCTYPE svg PUBLIC "-//W3C//DTD SVG 1.1//EN" "http://www.w3.org/Graphics/SVG/1.1/DTD/svg11.dtd">
<svg version="1.1" id="Layer_1" xmlns="http://www.w3.org/2000/svg" xmlns:xlink="http://www.w3.org/1999/xlink" x="0px" y="0px"
	 viewBox="0 0 359.1 274.4" enable-background="new 0 0 359.1 274.4" xml:space="preserve">
<g>
	<path fill="#FFFFFF" d="M347.8,3c4.5,0,8.2,3.7,8.2,8.2v198.9c0,4.5-3.7,8.2-8.2,8.2H11.2c-4.5,0-8.2-3.7-8.2-8.2V11.2
		C3,6.7,6.7,3,11.2,3H347.8 M347.8,0H11.2C5,0,0,5,0,11.2v198.9c0,6.2,5,11.2,11.2,11.2h336.6c6.2,0,11.2-5,11.2-11.2V11.2
		C359.1,5,354,0,347.8,0L347.8,0z"/>
</g>
<g>
	<path fill="#FFFFFF" d="M338.8,20.8v176.7H20V20.8H338.8 M339.6,17.8H19.2c-1.2,0-2.2,1-2.2,2.2v178.3c0,1.2,1,2.2,2.2,2.2h320.4
		c1.2,0,2.2-1,2.2-2.2V19.9C341.8,18.7,340.8,17.8,339.6,17.8L339.6,17.8z"/>
</g>
<circle fill="none" cx="179.1" cy="209.4" r="4.4"/>
<g>
	<g>
		<path fill="none" stroke="#FFFFFF" stroke-width="3" stroke-linecap="round" stroke-linejoin="round" stroke-miterlimit="10" d="
			M214.8,219.8h-71.1c0,0-4.4,53.1-24.8,53.1h120.7C219.3,272.9,214.8,219.8,214.8,219.8z"/>
	</g>
</g>
</svg>
