<?xml version="1.0" encoding="utf-8"?>
<!-- Generator: Adobe Illustrator 18.0.0, SVG Export Plug-In . SVG Version: 6.00 Build 0)  -->
<!DOCTYPE svg PUBLIC "-//W3C//DTD SVG 1.1//EN" "http://www.w3.org/Graphics/SVG/1.1/DTD/svg11.dtd">
<svg version="1.1" id="Layer_1" xmlns="http://www.w3.org/2000/svg" xmlns:xlink="http://www.w3.org/1999/xlink" x="0px" y="0px"
	 viewBox="0 0 72.4 143.1" enable-background="new 0 0 72.4 143.1" xml:space="preserve">
<g>
	<path fill="#FFFFFF" d="M59.8,3c5.3,0,9.6,4.3,9.6,9.6v118c0,5.3-4.3,9.6-9.6,9.6H12.6c-5.3,0-9.6-4.3-9.6-9.6v-118
		C3,7.3,7.3,3,12.6,3H59.8 M59.8,0H12.6C5.6,0,0,5.6,0,12.6v118c0,6.9,5.6,12.6,12.6,12.6h47.3c6.9,0,12.6-5.6,12.6-12.6v-118
		C72.4,5.6,66.8,0,59.8,0L59.8,0z"/>
</g>
<g>
	<path fill="#FFFFFF" d="M62.4,22.6v97.6H10V22.6H62.4 M65.4,19.6H7v103.6h58.4V19.6L65.4,19.6z"/>
</g>
<g>
	<circle fill="#FFFFFF" cx="28.7" cy="11.6" r="1.1"/>
	<path fill="#FFFFFF" d="M44.2,12.2h-9.5c-0.3,0-0.5-0.2-0.5-0.5v0c0-0.3,0.2-0.5,0.5-0.5h9.5c0.3,0,0.5,0.2,0.5,0.5v0
		C44.7,11.9,44.5,12.2,44.2,12.2z"/>
</g>
<circle fill="#FFFFFF" cx="36.2" cy="131.8" r="5"/>
</svg>
