<?xml version="1.0" encoding="utf-8"?>
<!-- Generator: Adobe Illustrator 18.0.0, SVG Export Plug-In . SVG Version: 6.00 Build 0)  -->
<!DOCTYPE svg PUBLIC "-//W3C//DTD SVG 1.1//EN" "http://www.w3.org/Graphics/SVG/1.1/DTD/svg11.dtd">
<svg version="1.1" id="Layer_1" xmlns="http://www.w3.org/2000/svg" xmlns:xlink="http://www.w3.org/1999/xlink" x="0px" y="0px"
	 viewBox="0 0 132.7 186.7" enable-background="new 0 0 132.7 186.7" xml:space="preserve">
<g>
	<path fill="#FFFFFF" d="M122.9,3c3.8,0,6.8,3.1,6.8,6.8v167.1c0,3.8-3.1,6.8-6.8,6.8H9.8c-3.8,0-6.8-3.1-6.8-6.8V9.8
		C3,6.1,6.1,3,9.8,3H122.9 M122.9,0H9.8C4.4,0,0,4.4,0,9.8v167.1c0,5.4,4.4,9.8,9.8,9.8h113.1c5.4,0,9.8-4.4,9.8-9.8V9.8
		C132.7,4.4,128.3,0,122.9,0L122.9,0z"/>
</g>
<circle fill="#FFFFFF" cx="66.6" cy="176" r="4"/>
<circle fill="#FFFFFF" cx="66.6" cy="11.4" r="1"/>
<g>
	<path fill="#FFFFFF" d="M119.3,22v142.9H13.5V22H119.3 M122.3,19H10.5v148.9h111.8V19L122.3,19z"/>
</g>
</svg>
